<svg width="375" height="319" viewBox="0 0 375 319" fill="none" xmlns="http://www.w3.org/2000/svg">
<rect x="105.965" y="79.6933" width="30.6824" height="4.51765" transform="rotate(-3.34543 105.965 79.6933)" fill="#884903"/>
<rect x="106.624" y="90.9682" width="30.6824" height="4.51765" transform="rotate(-3.34543 106.624 90.9682)" fill="#884903"/>
<path d="M105.181 75.968L107.255 72.7356L109.691 75.7043L111.031 98.6299L106.521 98.8935L105.181 75.968Z" fill="#B67146"/>
<path d="M118.899 75.1661L120.973 71.9337L123.409 74.9025L124.749 97.828L120.239 98.0917L118.899 75.1661Z" fill="#B67146"/>
<path d="M132.617 74.3642L134.691 71.1318L137.127 74.1006L138.467 97.0262L133.957 97.2898L132.617 74.3642Z" fill="#B67146"/>
<rect x="71.314" y="83.2729" width="30.6824" height="4.51765" transform="rotate(-6.28914 71.314 83.2729)" fill="#884903"/>
<rect x="72.5511" y="94.499" width="30.6824" height="4.51765" transform="rotate(-6.28914 72.5511 94.499)" fill="#884903"/>
<path d="M70.3402 79.5927L72.2452 76.258L74.8307 79.0978L77.3464 101.924L72.8559 102.419L70.3402 79.5927Z" fill="#B67146"/>
<path d="M83.9987 78.0874L85.9037 74.7527L88.4891 77.5925L91.0048 100.419L86.5144 100.914L83.9987 78.0874Z" fill="#B67146"/>
<path d="M97.6572 76.5821L99.5622 73.2474L102.148 76.0872L104.663 98.9137L100.173 99.4086L97.6572 76.5821Z" fill="#B67146"/>
<rect x="37.314" y="87.2729" width="30.6824" height="4.51765" transform="rotate(-6.28914 37.314 87.2729)" fill="#884903"/>
<rect x="38.5511" y="98.499" width="30.6824" height="4.51765" transform="rotate(-6.28914 38.5511 98.499)" fill="#884903"/>
<path d="M36.3402 83.5927L38.2452 80.258L40.8307 83.0978L43.3464 105.924L38.8559 106.419L36.3402 83.5927Z" fill="#B67146"/>
<path d="M49.9987 82.0874L51.9037 78.7527L54.4891 81.5925L57.0048 104.419L52.5144 104.914L49.9987 82.0874Z" fill="#B67146"/>
<path d="M63.6572 80.5821L65.5622 77.2474L68.1477 80.0872L70.6633 102.914L66.1729 103.409L63.6572 80.5821Z" fill="#B67146"/>
<rect x="2.31396" y="91.2729" width="30.6824" height="4.51765" transform="rotate(-6.28914 2.31396 91.2729)" fill="#884903"/>
<rect x="3.55115" y="102.499" width="30.6824" height="4.51765" transform="rotate(-6.28914 3.55115 102.499)" fill="#884903"/>
<path d="M1.34024 87.5927L3.24523 84.258L5.8307 87.0978L8.34638 109.924L3.85593 110.419L1.34024 87.5927Z" fill="#B67146"/>
<path d="M14.9987 86.0874L16.9037 82.7527L19.4891 85.5925L22.0048 108.419L17.5144 108.914L14.9987 86.0874Z" fill="#B67146"/>
<path d="M28.6572 84.5821L30.5622 81.2474L33.1477 84.0872L35.6633 106.914L31.1729 107.409L28.6572 84.5821Z" fill="#B67146"/>
<rect width="30.6824" height="4.51765" transform="matrix(-0.998296 -0.0583557 -0.0583557 0.998296 268.502 79.6933)" fill="#884903"/>
<rect width="30.6824" height="4.51765" transform="matrix(-0.998296 -0.0583557 -0.0583557 0.998296 267.843 90.9682)" fill="#884903"/>
<path d="M269.286 75.968L267.212 72.7356L264.776 75.7043L263.435 98.6299L267.945 98.8935L269.286 75.968Z" fill="#B67146"/>
<path d="M255.568 75.1661L253.494 71.9337L251.058 74.9025L249.718 97.828L254.228 98.0917L255.568 75.1661Z" fill="#B67146"/>
<path d="M241.85 74.3642L239.776 71.1318L237.34 74.1006L236 97.0262L240.51 97.2898L241.85 74.3642Z" fill="#B67146"/>
<rect width="30.6824" height="4.51765" transform="matrix(-0.993982 -0.109546 -0.109546 0.993982 303.153 83.2729)" fill="#884903"/>
<rect width="30.6824" height="4.51765" transform="matrix(-0.993982 -0.109546 -0.109546 0.993982 301.916 94.499)" fill="#884903"/>
<path d="M304.127 79.5927L302.222 76.258L299.636 79.0978L297.12 101.924L301.611 102.419L304.127 79.5927Z" fill="#B67146"/>
<path d="M290.468 78.0874L288.563 74.7527L285.978 77.5925L283.462 100.419L287.952 100.914L290.468 78.0874Z" fill="#B67146"/>
<path d="M276.81 76.5821L274.905 73.2474L272.319 76.0872L269.804 98.9137L274.294 99.4086L276.81 76.5821Z" fill="#B67146"/>
<rect width="30.6824" height="4.51765" transform="matrix(-0.993982 -0.109546 -0.109546 0.993982 337.153 87.2729)" fill="#884903"/>
<rect width="30.6824" height="4.51765" transform="matrix(-0.993982 -0.109546 -0.109546 0.993982 335.916 98.499)" fill="#884903"/>
<path d="M338.127 83.5927L336.222 80.258L333.636 83.0978L331.12 105.924L335.611 106.419L338.127 83.5927Z" fill="#B67146"/>
<path d="M324.468 82.0874L322.563 78.7527L319.978 81.5925L317.462 104.419L321.952 104.914L324.468 82.0874Z" fill="#B67146"/>
<path d="M310.81 80.5821L308.905 77.2474L306.319 80.0872L303.804 102.914L308.294 103.409L310.81 80.5821Z" fill="#B67146"/>
<rect width="30.6824" height="4.51765" transform="matrix(-0.993982 -0.109546 -0.109546 0.993982 372.153 91.2729)" fill="#884903"/>
<rect width="30.6824" height="4.51765" transform="matrix(-0.993982 -0.109546 -0.109546 0.993982 370.916 102.499)" fill="#884903"/>
<path d="M373.127 87.5927L371.222 84.258L368.636 87.0978L366.12 109.924L370.611 110.419L373.127 87.5927Z" fill="#B67146"/>
<path d="M359.468 86.0874L357.563 82.7527L354.978 85.5925L352.462 108.419L356.952 108.914L359.468 86.0874Z" fill="#B67146"/>
<path d="M345.81 84.5821L343.905 81.2474L341.319 84.0872L338.804 106.914L343.294 107.409L345.81 84.5821Z" fill="#B67146"/>
<rect x="68.6301" y="70.8792" width="6.23491" height="36.6301" fill="#B2351F"/>
<path d="M85.776 68.9308C80.3205 89.1943 58.888 82.18 58.1086 68.9308L60.4467 68.1515C65.9023 86.0768 82.2689 77.5038 83.0483 68.1515L85.776 68.9308Z" fill="#B2351F"/>
<rect x="73.3063" y="70.8792" width="1.55873" height="36.6301" fill="#872211"/>
<path d="M54.8821 14.7651C36.1774 13.2064 31.8909 31.9111 36.9568 40.4841C21.3695 64.6443 46.3091 77.8935 59.9479 69.7102C69.9238 76.2568 80.2114 72.438 84.1082 69.7102C108.424 79.686 119.959 53.7333 105.93 40.4841C115.672 22.9484 98.1367 13.5961 88.7844 14.7651C80.9908 -10.1745 55.6614 1.12624 54.8821 14.7651Z" fill="#157F03"/>
<mask id="mask0_1159_394" style="mask-type:alpha" maskUnits="userSpaceOnUse" x="32" y="0" width="80" height="74">
<path d="M54.8821 14.7651C36.1774 13.2064 31.8909 31.9111 36.9568 40.4841C21.3695 64.6443 46.3091 77.8935 59.9479 69.7102C69.9238 76.2568 80.2114 72.438 84.1082 69.7102C108.424 79.686 119.959 53.7333 105.93 40.4841C115.672 22.9484 98.1367 13.5961 88.7844 14.7651C80.9908 -10.1745 55.6614 1.12624 54.8821 14.7651Z" fill="#489500"/>
</mask>
<g mask="url(#mask0_1159_394)">
<path fill-rule="evenodd" clip-rule="evenodd" d="M32 51.601C34.4045 56.1978 39.9956 60.987 50.2719 56.9767C53.909 61.0034 63.5211 67.1864 72.8735 59.7045C81.8362 65.16 102.879 54.2489 90.4091 36.3236C94.306 29.699 96.0985 15.4366 78.329 14.5014C78.2265 10.5045 75.763 3.40267 67.5316 0.736551C60.6998 2.60171 54.9243 8.48881 54.5585 14.8911C35.8537 13.3324 31.5672 32.0371 36.6331 40.6101C34.0689 44.5846 32.6014 48.2639 32 51.601Z" fill="#489500"/>
</g>
<path d="M222.694 34.8355L188.108 16.9594L153.518 34.4106L140.747 63.7794V97.4076H235.464V63.7794L222.694 34.8355Z" fill="#C31A2D"/>
<path d="M140.747 64.6324L135 61.6518L148.622 30.5789L188.108 11.0003L227.378 30.7926L241 62.0772L235.464 64.6324L222.694 34.8357L188.108 16.9597L153.518 34.4103L140.747 64.6324Z" fill="#E9E9E7"/>
<path d="M149.492 31.8029L188.104 12.2234L226.508 32.0166L239.586 62.7301L241 62.0773L227.378 30.7927L188.108 11L148.622 30.5791L135 61.6519L136.387 62.3722L149.492 31.8029Z" fill="#CACACA"/>
<path d="M222.694 34.8355L188.108 16.9594L153.518 34.4106L140.747 63.7794V68.3286L155.168 35.7068L188.108 19.0878L220.459 35.8109L235.464 69.7378V63.7794L222.694 34.8355Z" fill="#A71724"/>
<path d="M182.784 19.6446V97.4074H185.34V18.3567L182.784 19.6446Z" fill="#A71724"/>
<path d="M200.345 97.4074H202.901V24.6045L200.345 23.2848V97.4074Z" fill="#A71724"/>
<path d="M191.565 97.4074H194.119V20.067L191.565 18.7474V97.4074Z" fill="#A71724"/>
<path d="M217.906 32.3611V97.4073H220.459V33.6808L217.906 32.3611Z" fill="#A71724"/>
<path d="M209.124 97.4074H211.68V29.143L209.124 27.8238V97.4074Z" fill="#A71724"/>
<path d="M155.168 97.4074H157.723V32.2889L155.168 33.5782V97.4074Z" fill="#A71724"/>
<path d="M146.387 50.8085V97.4075H148.942V44.9348L146.387 50.8085Z" fill="#A71724"/>
<path d="M226.686 43.8806V97.4076H229.239V49.6683L226.686 43.8806Z" fill="#A71724"/>
<path d="M172.728 97.4074H175.281V23.4286L172.728 24.7184V97.4074Z" fill="#A71724"/>
<path d="M163.947 97.4074H166.503V27.859L163.947 29.1483V97.4074Z" fill="#A71724"/>
<path d="M232.646 62.2532H142.982V60.2231H232.646V62.2532Z" fill="#A71724"/>
<path d="M211.68 96.3209H164.788V63.5602H211.68V96.3209Z" fill="#C31A2D"/>
<path d="M188.225 94.8204L178.393 81.3023L188.225 67.7843L198.056 81.3023L188.225 94.8204ZM211.679 64.9293L210.557 64.1132L199.806 78.8957L189.055 64.1132L188.225 64.7161L187.394 64.1132L176.643 78.8947L165.892 64.1132L164.789 64.9127V67.4097L174.892 81.3023L164.789 95.1954V96.321H167.47L176.643 83.7094L185.815 96.321H190.634L199.806 83.7094L208.979 96.321H211.679V95.2218L201.557 81.3023L211.679 67.3833V64.9293Z" fill="#A71724"/>
<path d="M185.949 93.7852H166.865V65.8759H185.949V93.7852ZM164.151 96.2055H188.661V63.4551H164.151V96.2055Z" fill="#A71724"/>
<path d="M209.346 93.7852H190.262V65.8759H209.346V93.7852ZM187.55 96.2055H212.06V63.4551H187.55V96.2055Z" fill="#A71724"/>
<path d="M186.53 94.7971H166.046V64.8405H186.53V94.7971ZM163.133 97.3958H189.442V62.2417H163.133V97.3958Z" fill="#E9E9E7"/>
<path d="M210.047 94.8086H189.563V64.852H210.047V94.8086ZM186.651 97.4073H212.959V62.2532H186.651V97.4073Z" fill="#E9E9E7"/>
<path d="M187.394 97.1376L163.601 64.4229L165.892 62.7575L189.685 95.4728L187.394 97.1376Z" fill="#CDA780"/>
<path d="M165.892 97.1376L163.601 95.4728L187.394 62.7575L189.685 64.4229L165.892 97.1376Z" fill="#CDA780"/>
<path d="M210.557 97.1376L186.765 64.4229L189.055 62.7575L212.847 95.4728L210.557 97.1376Z" fill="#CDA780"/>
<path d="M189.055 97.1376L186.765 95.4728L210.557 62.7575L212.847 64.4229L189.055 97.1376Z" fill="#CDA780"/>
<path d="M188.225 93.4633L178.393 79.9478L188.225 66.4292L198.056 79.9478L188.225 93.4633ZM212.847 64.4226L210.557 62.7572L199.806 77.5402L189.055 62.7572L188.225 63.362L187.394 62.7572L176.643 77.5402L165.892 62.7572L163.601 64.4226L174.891 79.9478L163.601 95.4724L165.892 97.1378L176.643 82.3544L187.394 97.1378L188.225 96.5325L189.055 97.1378L199.806 82.3544L210.557 97.1378L212.847 95.4724L201.557 79.9478L212.847 64.4226Z" fill="#E9E9E7"/>
<path d="M212.06 96.4715H164.151V63.1891H212.06V96.4715ZM163.252 97.4073H212.959V62.2532H163.252V97.4073Z" fill="#CACACA"/>
<path d="M196.893 50.2274H179.106V32.1255H196.893V50.2274Z" fill="#C31A2D"/>
<path d="M196.894 34.2649L195.487 32.8318L187.999 40.1837L180.511 32.8318L179.106 34.2649V34.8541L186.267 41.8852L179.106 48.9144V49.5031L179.816 50.2272H181.233L187.999 43.5858L194.766 50.2272H196.183L196.894 49.5031V48.9144L189.732 41.8852L196.894 34.8536V34.2649Z" fill="#A71724"/>
<path d="M194.822 47.9983H181.177V34.3546H194.822V47.9983ZM178.702 50.4739H197.298V31.88H178.702V50.4739Z" fill="#E9E9E7"/>
<path d="M195.487 50.2274L178.812 33.8559L180.511 32.1255L197.187 48.496L195.487 50.2274Z" fill="#E9E9E7"/>
<path d="M196.894 33.5577L195.487 32.1251L179.106 48.2072V48.7954L180.511 50.2275L196.894 34.144V33.5577Z" fill="#E9E9E7"/>
<path d="M196.539 49.7155H179.459V32.6379H196.539V49.7155ZM178.702 50.4739H197.298V31.8801H178.702V50.4739Z" fill="#CACACA"/>
<rect x="295.762" y="71.5894" width="5.06586" height="29.7619" fill="#B2351F"/>
<path d="M309.693 70.0063C305.26 86.4703 287.846 80.7712 287.213 70.0063L289.113 69.3731C293.546 83.9374 306.843 76.9719 307.477 69.3731L309.693 70.0063Z" fill="#B2351F"/>
<rect x="299.561" y="71.5894" width="1.26647" height="29.7619" fill="#872211"/>
<path d="M284.592 25.9966C269.394 24.7302 265.911 39.9278 270.027 46.8933C257.363 66.5235 277.626 77.2885 288.708 70.6395C296.813 75.9587 305.172 72.8558 308.338 70.6395C328.095 78.7449 337.467 57.6583 326.068 46.8933C333.984 32.6456 319.736 25.0468 312.137 25.9966C305.805 5.7332 285.225 14.9151 284.592 25.9966Z" fill="#157F03"/>
<mask id="mask1_1159_394" style="mask-type:alpha" maskUnits="userSpaceOnUse" x="266" y="14" width="65" height="60">
<path d="M284.592 25.9966C269.394 24.7302 265.911 39.9278 270.027 46.8933C257.363 66.5235 277.626 77.2885 288.708 70.6395C296.813 75.9587 305.172 72.8558 308.338 70.6395C328.095 78.7449 337.467 57.6583 326.068 46.8933C333.984 32.6456 319.736 25.0468 312.137 25.9966C305.805 5.7332 285.225 14.9151 284.592 25.9966Z" fill="#489500"/>
</mask>
<g mask="url(#mask1_1159_394)">
<path fill-rule="evenodd" clip-rule="evenodd" d="M266 55.9258C267.954 59.6607 272.496 63.5519 280.846 60.2936C283.801 63.5653 291.611 68.5889 299.21 62.5099C306.492 66.9425 323.589 58.0773 313.457 43.5129C316.624 38.1304 318.08 26.5423 303.642 25.7824C303.559 22.5349 301.557 16.7647 294.869 14.5984C289.319 16.1139 284.626 20.8972 284.329 26.099C269.131 24.8326 265.648 40.0301 269.764 46.9957C267.681 50.225 266.489 53.2144 266 55.9258Z" fill="#489500"/>
</g>
<path d="M0 110.463C146.447 89.7629 228.553 89.9286 375 110.463V318.463H0V110.463Z" fill="#64BC07"/>
<path d="M0 138C0 253.5 375 261.5 375 138V318H0V138Z" fill="#5DAA04"/>
</svg>
