<svg width="236" height="81" viewBox="0 0 236 81" fill="none" xmlns="http://www.w3.org/2000/svg">
<path fill-rule="evenodd" clip-rule="evenodd" d="M7.85106 26.9474C7.84922 26.975 7.84761 27.0027 7.84622 27.0303C7.67815 30.3917 7.65293 34.4148 7.76134 39.0763C7.92405 46.0731 8.38709 51.8599 9.20064 56.3344C9.20243 56.3443 9.20426 56.3542 9.20612 56.3641C9.20813 56.3747 9.21017 56.3854 9.21224 56.3961C10.0418 60.6544 11.0409 64.2578 12.3034 66.9823L12.3257 67.0297C13.496 69.4873 15.1028 72.0546 17.4882 73.5313C17.5174 73.5494 17.5468 73.5672 17.5763 73.5846C19.1608 74.5209 21.0974 75.32 23.24 75.32C24.3803 75.32 25.6385 75.0473 26.81 74.3074C27.8787 73.6325 28.6171 72.7319 29.1086 71.8322C29.9672 70.3844 30.3046 68.7734 30.4458 67.3921C30.6425 65.9533 30.6938 64.3803 30.64 62.7158C30.639 61.187 30.6113 59.5119 30.5578 57.693C30.5572 57.6713 30.5564 57.6495 30.5555 57.6278C30.555 57.6153 30.5544 57.6028 30.5537 57.5903C30.5033 56.5823 30.459 55.5484 30.4206 54.4886C30.8113 55.7499 31.1334 56.9736 31.3894 58.1604C32.1413 61.74 33.3477 65.1173 35.4717 67.5265C37.205 69.538 39.6569 71.3872 42.8593 71.5514C45.9095 71.7635 48.4655 70.4509 50.3752 68.5752C52.2802 66.8034 53.5046 64.5444 54.2344 62.0874L55.6836 59.2949C55.8434 60.528 56.0334 61.7008 56.2552 62.8111C56.8338 65.7592 57.6 68.3992 58.6327 70.6022C58.6506 70.6404 58.669 70.6783 58.6879 70.7161C59.6759 72.6922 60.8286 74.4857 62.2057 75.9516C63.4796 77.3571 64.9942 78.5825 66.7915 79.3619C68.0929 79.9698 69.4813 80.4365 70.9262 80.6293C73.2855 80.9915 75.7904 80.3626 77.6458 78.3386C78.9447 76.9216 79.6821 75.191 80.1241 73.5504C80.6157 71.9642 80.9214 70.1923 81.0982 68.3067C81.2608 66.5717 81.4229 64.6803 81.5845 62.6335L81.5878 62.5891L81.5889 62.5726C81.6818 61.1787 81.7839 59.7473 81.8952 58.2783L81.9337 58.3286C81.9471 58.3459 81.9606 58.3632 81.9742 58.3804C81.9851 58.3942 81.9961 58.408 82.0072 58.4217C83.5564 60.3398 85.4421 61.8881 87.6239 63.0518C87.6817 63.0826 87.7401 63.1123 87.7991 63.1408C90.1017 64.255 92.5911 64.85 95.2002 64.9913C97.4351 65.1356 99.6369 64.8431 101.722 64.0152C103.508 63.3249 105.157 62.3865 106.588 61.1495C108.008 62.3058 109.633 63.1939 111.382 63.8667C113.482 64.6743 115.774 65 118.137 65C121.546 65 124.789 64.1906 127.556 62.262L127.58 62.2448C128.659 61.4832 129.636 60.6251 130.504 59.6746C130.629 59.8207 130.756 59.9643 130.886 60.1053C130.909 60.1303 130.932 60.155 130.956 60.1795C132.712 62.012 134.812 63.3808 137.244 64.1353C137.294 64.151 137.345 64.1659 137.396 64.18C139.375 64.7258 141.395 65 143.446 65C145.633 65 148.427 64.4008 150.337 61.9691C150.371 61.9256 150.405 61.8815 150.438 61.8368C151.572 60.2896 152.207 58.5307 152.409 56.6894C152.458 56.3347 152.497 55.9796 152.526 55.6243C153.08 55.8458 153.651 56.0348 154.237 56.1912C154.288 56.2047 154.339 56.2173 154.389 56.2292C156.769 56.7845 159.195 56.762 161.603 56.2512C162.69 56.0206 163.739 55.6947 164.741 55.2678C165.849 57.2393 167.32 58.9908 169.18 60.4714L169.215 60.499C173.175 63.5951 177.968 65 183.254 65C188.53 65 193.311 63.6001 197.231 60.4854C197.733 60.0927 198.206 59.6806 198.652 59.2501C199.088 59.6752 199.549 60.0827 200.037 60.4714L200.072 60.499C204.032 63.5951 208.825 65 214.112 65C219.388 65 224.168 63.6001 228.089 60.4854C232.216 57.2513 234.47 52.7058 235.079 47.3726C235.457 44.1469 235.295 41.0293 234.451 38.1049C233.687 35.2262 232.368 32.6334 230.422 30.4532C228.491 28.2353 226.085 26.5839 223.319 25.4659C220.504 24.2523 217.396 23.72 214.112 23.72C210.807 23.72 207.678 24.2589 204.825 25.466C202.299 26.5067 200.081 28.0015 198.245 29.9623C196.632 27.8503 194.506 26.297 192.013 25.2863C189.324 24.1962 186.37 23.72 183.254 23.72C179.958 23.72 176.836 24.2562 173.988 25.4573C171.213 26.5755 168.8 28.2299 166.863 30.4539C166.75 30.5813 166.638 30.7101 166.529 30.8402C166.049 29.3409 165.264 27.9466 164.133 26.7403C162.556 25.0583 160.569 24.046 158.453 23.5381C156.193 22.9957 153.796 23.1161 151.451 23.5719L151.425 23.5771C149.645 23.9332 147.972 24.5913 146.447 25.5637C146.264 25.4606 146.077 25.3624 145.884 25.2693C144.058 24.3627 142.084 23.8786 140.042 23.7327L139.989 23.7292C139.965 23.7278 139.941 23.7265 139.918 23.7254C136.97 23.5883 133.977 24.0692 131.429 25.7352C131.404 25.7517 131.379 25.7684 131.354 25.7854C129.83 26.8219 128.542 28.101 127.533 29.6101C127.512 29.5724 127.492 29.5348 127.471 29.4973C125.377 25.6878 121.463 24.2418 117.71 23.9005L117.681 23.898C114.445 23.6226 111.291 24.0773 108.462 25.5679C107.777 25.9226 107.128 26.3217 106.518 26.7639C106.284 26.5943 106.045 26.431 105.801 26.2741C104.575 25.4861 103.234 24.9313 101.843 24.5549C100.255 24.0699 98.5648 23.88 96.8569 23.88C94.7543 23.88 92.6941 24.3262 90.7086 25.1062C90.3085 25.2634 89.9162 25.4361 89.5317 25.6236C89.818 24.4908 90.0712 23.3902 90.2903 22.3224C90.8933 19.5929 91.1368 16.9394 90.854 14.4468C90.6019 11.7407 89.6302 9.19618 87.7397 7.11664C85.5967 4.75937 82.6292 3.69919 79.6993 3.28914C77.9802 3.04397 76.2963 2.94116 74.6564 3.00033C72.7442 3.01267 70.8799 3.36693 69.1068 4.09227C67.1209 4.9047 65.4326 6.19567 64.0123 7.76543C62.594 9.33304 61.4472 11.2718 60.4927 13.4071L50.7421 28.8735C49.9456 26.4067 49.0448 24.0677 48.036 21.8602C45.6351 16.4913 42.7938 11.9522 39.4298 8.40127L39.4228 8.39393C36.8077 5.64471 33.7078 3.65321 30.1547 2.52755C27.0167 1.46682 23.8254 0.919998 20.6 0.919998C17.4965 0.919998 14.5092 1.32407 11.6633 2.16491C8.98649 2.95577 6.54327 4.01512 4.54389 5.47283C2.5949 6.87992 0.638331 9.05979 0.342506 12.166C0.335021 12.2446 0.329398 12.3233 0.325643 12.4022C0.104942 17.0369 4.08542 19.2524 6.17901 20.1279C6.82187 20.4017 7.55835 20.8025 8.38921 21.3597C8.16318 23.0648 7.9855 24.9307 7.85106 26.9474ZM70.788 75.5182C71.0804 75.5916 71.3644 75.6455 71.64 75.68C71.8295 75.7116 72.0117 75.7276 72.1866 75.728L70.788 75.5182Z" fill="white"/>
<path d="M12.76 38.96C12.6533 34.3733 12.68 30.48 12.84 27.28C13.0533 24.08 13.3733 21.3867 13.8 19.2C11.7733 17.4933 9.88 16.2667 8.12 15.52C6.2 14.72 5.26667 13.76 5.32 12.64C5.42667 11.52 6.14667 10.48 7.48 9.52C8.86667 8.50667 10.7333 7.65333 13.08 6.96C15.4267 6.26667 17.9333 5.92 20.6 5.92C23.2667 5.92 25.9333 6.37333 28.6 7.28C31.32 8.13333 33.72 9.65333 35.8 11.84C38.68 14.88 41.24 18.9067 43.48 23.92C45.7733 28.9333 47.5067 34.8 48.68 41.52L64.92 15.76C65.7733 13.7867 66.7067 12.24 67.72 11.12C68.7333 10 69.8267 9.2 71 8.72C72.1733 8.24 73.4267 8 74.76 8C76.0933 7.94667 77.5067 8.02667 79 8.24C81.2933 8.56 82.9733 9.30667 84.04 10.48C85.1067 11.6533 85.72 13.1467 85.88 14.96C86.0933 16.7733 85.9333 18.88 85.4 21.28C84.92 23.6267 84.2533 26.1867 83.4 28.96C82.6 31.68 81.72 34.56 80.76 37.6C79.8533 40.5867 79.08 43.6267 78.44 46.72C77.8533 49.3867 77.4267 52.0533 77.16 54.72C76.9467 57.3333 76.76 59.84 76.6 62.24C76.44 64.2667 76.28 66.1333 76.12 67.84C75.96 69.5467 75.6933 70.9867 75.32 72.16C75 73.3867 74.5467 74.32 73.96 74.96C73.3733 75.6 72.6 75.84 71.64 75.68C70.7867 75.5733 69.8533 75.28 68.84 74.8C67.8267 74.3733 66.84 73.6267 65.88 72.56C64.92 71.5467 64.0133 70.1867 63.16 68.48C62.36 66.7733 61.6933 64.56 61.16 61.84C60.6267 59.1733 60.28 56 60.12 52.32C59.96 48.5867 60.0933 44.1867 60.52 39.12L49.56 60.24C49.0267 62.2667 48.1467 63.84 46.92 64.96C45.7467 66.1333 44.4933 66.6667 43.16 66.56C41.8267 66.5067 40.52 65.7333 39.24 64.24C37.96 62.8 36.9733 60.4267 36.28 57.12C35.5333 53.6533 34.3067 50 32.6 46.16C30.8933 42.2667 28.8933 38.48 26.6 34.8C26.1733 37.84 25.8533 40.88 25.64 43.92C25.4267 46.32 25.32 48.72 25.32 51.12C25.3733 53.4667 25.4533 55.7067 25.56 57.84C25.6133 59.6533 25.64 61.3067 25.64 62.8C25.6933 64.3467 25.64 65.68 25.48 66.8C25.3733 67.92 25.1333 68.7733 24.76 69.36C24.44 70 23.9333 70.32 23.24 70.32C22.3333 70.32 21.2933 69.9733 20.12 69.28C19 68.5867 17.9067 67.12 16.84 64.88C15.8267 62.6933 14.92 59.5467 14.12 55.44C13.3733 51.3333 12.92 45.84 12.76 38.96Z" fill="#014FFF"/>
<path d="M129.737 39.12C130.377 41.5733 130.617 44.0533 130.457 46.56C130.35 49.0133 129.817 51.2533 128.857 53.28C127.897 55.2533 126.51 56.88 124.697 58.16C122.937 59.3867 120.75 60 118.137 60C116.217 60 114.564 59.7333 113.177 59.2C111.79 58.6667 110.617 58 109.657 57.2C108.75 56.3467 108.057 55.4133 107.577 54.4C107.097 53.3333 106.83 52.2667 106.777 51.2C106.724 52.2667 106.404 53.3333 105.817 54.4C105.23 55.4667 104.43 56.4267 103.417 57.28C102.457 58.1333 101.284 58.8267 99.8969 59.36C98.5635 59.8933 97.0969 60.1067 95.4969 60C93.4702 59.8933 91.6302 59.44 89.9769 58.64C88.3769 57.7867 87.0169 56.6667 85.8969 55.28C84.8302 53.8933 84.0569 52.2933 83.5769 50.48C83.0435 48.6133 82.8835 46.5867 83.0969 44.4C83.3635 41.7333 83.9769 39.4133 84.9369 37.44C85.8969 35.4667 87.0169 33.84 88.2969 32.56C89.6302 31.28 91.0435 30.3467 92.5369 29.76C94.0302 29.1733 95.4702 28.88 96.8569 28.88C98.2435 28.88 99.4435 29.04 100.457 29.36C101.47 29.6267 102.35 30 103.097 30.48C103.844 30.96 104.51 31.52 105.097 32.16C105.684 32.7467 106.217 33.3333 106.697 33.92C107.657 32.2133 109.017 30.9067 110.777 30C112.59 29.04 114.75 28.6667 117.257 28.88C120.19 29.1467 122.137 30.16 123.097 31.92C124.057 33.6267 124.27 36.2133 123.737 39.68C123.524 41.0667 123.604 42.1333 123.977 42.88C124.35 43.5733 124.857 43.92 125.497 43.92C126.19 43.92 126.91 43.5467 127.657 42.8C128.457 42 129.15 40.7733 129.737 39.12ZM103.577 45.04C104.27 45.04 104.884 44.7733 105.417 44.24C106.004 43.6533 106.297 42.7467 106.297 41.52C106.35 40.24 106.11 39.28 105.577 38.64C105.097 37.9467 104.43 37.6 103.577 37.6C102.724 37.6 102.03 37.9467 101.497 38.64C101.017 39.28 100.804 40.24 100.857 41.52C100.857 42.7467 101.124 43.6533 101.657 44.24C102.244 44.7733 102.884 45.04 103.577 45.04Z" fill="#014FFF"/>
<path d="M129.766 42.16C129.659 40.88 129.686 39.44 129.846 37.84C130.059 36.24 130.486 34.7467 131.126 33.36C131.819 31.9733 132.832 30.8267 134.166 29.92C135.552 29.0133 137.392 28.6133 139.686 28.72C141.179 28.8267 142.512 29.1733 143.686 29.76C144.912 30.3467 145.739 31.3333 146.166 32.72C146.912 31.6533 147.792 30.7467 148.806 30C149.872 29.2533 151.072 28.7467 152.406 28.48C154.326 28.1067 155.952 28.08 157.286 28.4C158.619 28.72 159.686 29.3067 160.486 30.16C161.286 31.0133 161.792 32.08 162.006 33.36C162.272 34.5867 162.272 35.92 162.006 37.36C161.739 38.6933 161.766 39.76 162.086 40.56C162.459 41.36 162.966 41.8667 163.606 42.08C164.246 42.24 164.939 42.1067 165.686 41.68C166.486 41.2 167.179 40.3467 167.766 39.12C168.512 41.4133 168.592 43.4133 168.006 45.12C167.419 46.8267 166.459 48.2133 165.126 49.28C163.846 50.2933 162.326 50.9867 160.566 51.36C158.806 51.7333 157.126 51.7333 155.526 51.36C153.926 50.9333 152.539 50.16 151.366 49.04C150.246 47.8667 149.632 46.2667 149.526 44.24C149.472 43.6 149.312 43.0933 149.046 42.72C148.779 42.2933 148.486 42.2133 148.166 42.48C147.899 42.6933 147.659 43.36 147.446 44.48C147.232 45.6 147.206 47.36 147.366 49.76C147.366 50.56 147.419 51.5467 147.526 52.72C147.632 53.84 147.606 54.96 147.446 56.08C147.339 57.1467 146.992 58.08 146.406 58.88C145.819 59.6267 144.832 60 143.446 60C141.846 60 140.272 59.7867 138.726 59.36C137.179 58.88 135.792 58 134.566 56.72C133.339 55.3867 132.299 53.5733 131.446 51.28C130.592 48.9333 130.032 45.8933 129.766 42.16Z" fill="#014FFF"/>
<path d="M188.454 46.56C190.588 46.56 192.614 45.92 194.534 44.64C196.508 43.3067 197.894 41.4667 198.694 39.12C199.014 40.24 199.228 41.4667 199.334 42.8C199.441 44.08 199.414 45.4133 199.254 46.8C198.774 51.0133 197.068 54.2667 194.134 56.56C191.254 58.8533 187.628 60 183.254 60C178.881 60 175.228 58.8533 172.294 56.56C169.414 54.2667 167.734 51.0133 167.254 46.8C166.934 44.08 167.068 41.6267 167.654 39.44C168.241 37.2 169.228 35.3067 170.614 33.76C172.001 32.16 173.761 30.9333 175.894 30.08C178.028 29.1733 180.481 28.72 183.254 28.72C185.868 28.72 188.161 29.12 190.134 29.92C192.108 30.72 193.628 31.9467 194.694 33.6C195.174 34.4 195.521 35.2267 195.734 36.08C195.948 36.88 196.001 37.68 195.894 38.48C195.788 39.28 195.548 40 195.174 40.64C194.801 41.28 194.268 41.7867 193.574 42.16C192.348 42.9067 191.334 43.0667 190.534 42.64C189.734 42.16 189.308 41.3867 189.254 40.32C189.201 39.4133 188.721 38.8267 187.814 38.56C186.961 38.2933 186.134 38.4267 185.334 38.96C184.854 39.28 184.481 39.8667 184.214 40.72C184.001 41.52 183.974 42.3733 184.134 43.28C184.294 44.1333 184.694 44.9067 185.334 45.6C186.028 46.24 187.068 46.56 188.454 46.56Z" fill="#014FFF"/>
<path d="M214.112 28.72C216.885 28.72 219.312 29.1733 221.392 30.08C223.525 30.9333 225.285 32.16 226.672 33.76C228.059 35.3067 229.045 37.2 229.632 39.44C230.272 41.6267 230.432 44.08 230.112 46.8C229.632 51.0133 227.925 54.2667 224.992 56.56C222.112 58.8533 218.485 60 214.112 60C209.739 60 206.085 58.8533 203.152 56.56C200.272 54.2667 198.592 51.0133 198.112 46.8C197.792 44.08 197.952 41.6267 198.592 39.44C199.179 37.2 200.165 35.3067 201.552 33.76C202.939 32.16 204.672 30.9333 206.752 30.08C208.885 29.1733 211.339 28.72 214.112 28.72ZM216.832 41.52C216.885 40.24 216.645 39.28 216.112 38.64C215.632 37.9467 214.965 37.6 214.112 37.6C213.259 37.6 212.565 37.9467 212.032 38.64C211.552 39.28 211.339 40.24 211.392 41.52C211.392 42.7467 211.659 43.6533 212.192 44.24C212.779 44.7733 213.419 45.04 214.112 45.04C214.805 45.04 215.419 44.7733 215.952 44.24C216.539 43.6533 216.832 42.7467 216.832 41.52Z" fill="#014FFF"/>
</svg>
