<svg width="336" height="350" viewBox="0 0 336 350" fill="none" xmlns="http://www.w3.org/2000/svg">
<path d="M292.259 177.702C280.759 169.202 273.259 180.202 274.259 186.702C267.759 187.702 269.759 195.202 273.259 195.702C288.593 196.702 325.759 195.202 328.759 195.202C331.759 195.202 335.759 188.702 328.759 186.702C329.759 177.702 321.759 177.202 318.259 179.202C311.759 160.702 294.759 168.702 292.259 177.702Z" fill="white"/>
<path d="M282.219 9.00556C270.422 9.00556 271.494 21.8579 276.856 24L309.03 22.929C316.537 15.4317 307.957 10.0766 303.667 11.1476C301.523 -5.98887 283.291 -0.633735 282.219 9.00556Z" fill="white"/>
<path d="M306.219 335.006C294.422 335.006 295.494 347.858 300.856 350L333.03 348.929C340.537 341.432 331.957 336.077 327.667 337.148C325.523 320.011 307.291 325.366 306.219 335.006Z" fill="white"/>
<path d="M6.79359 113.521C-2.97336 113.521 -0.531638 123.188 3.74142 125H94.6958C103.242 119.563 97.1375 112.917 92.8645 112.917C94.0854 94.7922 74.5515 92.3755 67.8368 100.834C60.5116 68.8134 23.2752 80.2924 23.8857 102.042C13.5083 96.0005 5.57269 108.084 6.79359 113.521Z" fill="white"/>
<path d="M96.1762 297.646C81.1762 292.146 79.6763 311.146 88.1762 314.146H136.176C142.676 310.646 138.176 304.646 135.176 305.146C136.676 294.646 127.176 294.146 124.176 297.646C120.676 278.146 96.1762 283.646 96.1762 297.646Z" fill="white"/>
</svg>
