<svg width="86" height="111" viewBox="0 0 86 111" fill="none" xmlns="http://www.w3.org/2000/svg">
<path d="M55.5006 4.99655L52.7819 71.6528L32.3444 70.7153L33.4694 26.3716L25.9694 31.5278L18.9381 15.4966L34.2194 4.05905L55.5006 4.99655Z" fill="#014FFF"/>
<path fill-rule="evenodd" clip-rule="evenodd" d="M59.6598 1.17589L56.6147 75.8328L28.2463 74.5315L29.2717 34.1116L24.2492 37.5645L14 14.1962L32.9671 0L59.6598 1.17589ZM33.4694 26.3715L32.3444 70.7153L52.7819 71.6528L55.5006 4.99655L34.2194 4.05905L18.9381 15.4965L25.9694 31.5278L33.4694 26.3715Z" fill="white"/>
<mask id="path-3-outside-1_1177_21" maskUnits="userSpaceOnUse" x="0" y="77" width="86" height="34" fill="black">
<rect fill="white" y="77" width="86" height="34"/>
<path d="M22.375 106.566L15.5938 107.441L14.7734 104.352H11.6562L10.9727 107.441L4 106.758L9.44141 88.5469L17.043 88.1641L22.375 106.566ZM14.2812 100.168L13.2422 95.4102L12.2305 100.168H14.2812Z"/>
<path d="M41.2559 88.1367L40.2715 106.676L33.1074 107.332L29.2793 97.4062L28.6777 107.523H22.5254L23.0176 88.1367L29.8535 87.8086L34.584 97.6523L34.8027 88.3555L41.2559 88.1367ZM37.3457 83.7891C37.3457 84.3177 37.25 84.8099 37.0586 85.2656C36.8672 85.7214 36.6029 86.1178 36.2656 86.4551C35.9375 86.7923 35.5456 87.0566 35.0898 87.248C34.6432 87.4395 34.1647 87.5352 33.6543 87.5352C33.2533 87.5352 32.9115 87.4622 32.6289 87.3164C32.3464 87.1706 32.1048 86.9883 31.9043 86.7695C31.7129 86.5508 31.5443 86.3138 31.3984 86.0586C31.2617 85.8034 31.1341 85.5664 31.0156 85.3477C30.8971 85.1289 30.7741 84.9466 30.6465 84.8008C30.528 84.6549 30.3913 84.582 30.2363 84.582C30.1361 84.582 30.0495 84.6139 29.9766 84.6777C29.9036 84.7324 29.8444 84.8008 29.7988 84.8828C29.7624 84.9648 29.735 85.056 29.7168 85.1562C29.6986 85.2565 29.6895 85.3477 29.6895 85.4297C29.6895 85.7031 29.7214 85.972 29.7852 86.2363C29.8581 86.4915 29.9447 86.7422 30.0449 86.9883L26.709 87.2617C26.5996 86.8789 26.5221 86.4961 26.4766 86.1133C26.431 85.7214 26.4082 85.3385 26.4082 84.9648C26.4082 84.4089 26.4811 83.8893 26.627 83.4062C26.7728 82.9232 26.987 82.5039 27.2695 82.1484C27.5612 81.793 27.9167 81.515 28.3359 81.3145C28.7643 81.1048 29.2611 81 29.8262 81C30.3275 81 30.7422 81.0775 31.0703 81.2324C31.3984 81.3874 31.6719 81.5788 31.8906 81.8066C32.1094 82.0345 32.278 82.2852 32.3965 82.5586C32.5241 82.832 32.638 83.0827 32.7383 83.3105C32.8385 83.5384 32.9342 83.7298 33.0254 83.8848C33.1165 84.0397 33.235 84.1172 33.3809 84.1172C33.5632 84.1172 33.7044 84.0352 33.8047 83.8711C33.9049 83.707 33.9551 83.543 33.9551 83.3789C33.9551 83.1055 33.9004 82.8411 33.791 82.5859C33.6816 82.3216 33.5632 82.0846 33.4355 81.875L36.8262 81.3281C36.9811 81.7292 37.1042 82.1348 37.1953 82.5449C37.2956 82.946 37.3457 83.3607 37.3457 83.7891Z"/>
<path d="M49.7598 88.4922L48.2559 107.113L42.4863 107.414V88.875L49.7598 88.4922Z"/>
<path d="M65.168 88.1914L65.0312 93.9883L60.957 94.1523L59.918 107.113L54.1484 107.414L54.1758 94.4531L50.1016 94.6719L50.2656 88.2188L65.168 88.1914Z"/>
<path d="M82.2715 98.0898C82.2715 98.9193 82.1758 99.7214 81.9844 100.496C81.793 101.262 81.515 101.982 81.1504 102.656C80.7949 103.331 80.3574 103.951 79.8379 104.516C79.3275 105.072 78.7487 105.55 78.1016 105.951C77.4635 106.352 76.7663 106.667 76.0098 106.895C75.2533 107.113 74.4512 107.223 73.6035 107.223C72.7832 107.223 71.9993 107.118 71.252 106.908C70.5137 106.699 69.821 106.407 69.1738 106.033C68.5267 105.65 67.9388 105.195 67.4102 104.666C66.8906 104.128 66.444 103.536 66.0703 102.889C65.7057 102.232 65.4186 101.531 65.209 100.783C65.0085 100.036 64.9082 99.2565 64.9082 98.4453C64.9082 97.6523 65.0039 96.8776 65.1953 96.1211C65.3867 95.3555 65.6602 94.6354 66.0156 93.9609C66.3802 93.2865 66.8177 92.6667 67.3281 92.1016C67.8385 91.5365 68.4082 91.0488 69.0371 90.6387C69.6751 90.2285 70.3633 89.9095 71.1016 89.6816C71.8398 89.4538 72.6191 89.3398 73.4395 89.3398C74.7611 89.3398 75.9642 89.5449 77.0488 89.9551C78.1426 90.3652 79.0723 90.9531 79.8379 91.7188C80.6126 92.4753 81.2096 93.3958 81.6289 94.4805C82.0573 95.556 82.2715 96.7591 82.2715 98.0898ZM76.2012 98.4453C76.2012 98.0534 76.1419 97.6751 76.0234 97.3105C75.9141 96.9368 75.75 96.6087 75.5312 96.3262C75.3125 96.0345 75.0391 95.8021 74.7109 95.6289C74.3919 95.4466 74.0228 95.3555 73.6035 95.3555C73.1751 95.3555 72.7923 95.4329 72.4551 95.5879C72.1178 95.7428 71.8262 95.957 71.5801 96.2305C71.3431 96.4948 71.1608 96.8092 71.0332 97.1738C70.9056 97.5293 70.8418 97.9076 70.8418 98.3086C70.8418 98.6914 70.8965 99.0742 71.0059 99.457C71.1152 99.8398 71.2793 100.186 71.498 100.496C71.7168 100.806 71.9857 101.057 72.3047 101.248C72.6328 101.439 73.0111 101.535 73.4395 101.535C73.8678 101.535 74.2507 101.453 74.5879 101.289C74.9342 101.116 75.2259 100.888 75.4629 100.605C75.6999 100.314 75.8822 99.9811 76.0098 99.6074C76.1374 99.2337 76.2012 98.8464 76.2012 98.4453Z"/>
</mask>
<path d="M22.375 106.566L15.5938 107.441L14.7734 104.352H11.6562L10.9727 107.441L4 106.758L9.44141 88.5469L17.043 88.1641L22.375 106.566ZM14.2812 100.168L13.2422 95.4102L12.2305 100.168H14.2812Z" fill="#014FFF"/>
<path d="M41.2559 88.1367L40.2715 106.676L33.1074 107.332L29.2793 97.4062L28.6777 107.523H22.5254L23.0176 88.1367L29.8535 87.8086L34.584 97.6523L34.8027 88.3555L41.2559 88.1367ZM37.3457 83.7891C37.3457 84.3177 37.25 84.8099 37.0586 85.2656C36.8672 85.7214 36.6029 86.1178 36.2656 86.4551C35.9375 86.7923 35.5456 87.0566 35.0898 87.248C34.6432 87.4395 34.1647 87.5352 33.6543 87.5352C33.2533 87.5352 32.9115 87.4622 32.6289 87.3164C32.3464 87.1706 32.1048 86.9883 31.9043 86.7695C31.7129 86.5508 31.5443 86.3138 31.3984 86.0586C31.2617 85.8034 31.1341 85.5664 31.0156 85.3477C30.8971 85.1289 30.7741 84.9466 30.6465 84.8008C30.528 84.6549 30.3913 84.582 30.2363 84.582C30.1361 84.582 30.0495 84.6139 29.9766 84.6777C29.9036 84.7324 29.8444 84.8008 29.7988 84.8828C29.7624 84.9648 29.735 85.056 29.7168 85.1562C29.6986 85.2565 29.6895 85.3477 29.6895 85.4297C29.6895 85.7031 29.7214 85.972 29.7852 86.2363C29.8581 86.4915 29.9447 86.7422 30.0449 86.9883L26.709 87.2617C26.5996 86.8789 26.5221 86.4961 26.4766 86.1133C26.431 85.7214 26.4082 85.3385 26.4082 84.9648C26.4082 84.4089 26.4811 83.8893 26.627 83.4062C26.7728 82.9232 26.987 82.5039 27.2695 82.1484C27.5612 81.793 27.9167 81.515 28.3359 81.3145C28.7643 81.1048 29.2611 81 29.8262 81C30.3275 81 30.7422 81.0775 31.0703 81.2324C31.3984 81.3874 31.6719 81.5788 31.8906 81.8066C32.1094 82.0345 32.278 82.2852 32.3965 82.5586C32.5241 82.832 32.638 83.0827 32.7383 83.3105C32.8385 83.5384 32.9342 83.7298 33.0254 83.8848C33.1165 84.0397 33.235 84.1172 33.3809 84.1172C33.5632 84.1172 33.7044 84.0352 33.8047 83.8711C33.9049 83.707 33.9551 83.543 33.9551 83.3789C33.9551 83.1055 33.9004 82.8411 33.791 82.5859C33.6816 82.3216 33.5632 82.0846 33.4355 81.875L36.8262 81.3281C36.9811 81.7292 37.1042 82.1348 37.1953 82.5449C37.2956 82.946 37.3457 83.3607 37.3457 83.7891Z" fill="#014FFF"/>
<path d="M49.7598 88.4922L48.2559 107.113L42.4863 107.414V88.875L49.7598 88.4922Z" fill="#014FFF"/>
<path d="M65.168 88.1914L65.0312 93.9883L60.957 94.1523L59.918 107.113L54.1484 107.414L54.1758 94.4531L50.1016 94.6719L50.2656 88.2188L65.168 88.1914Z" fill="#014FFF"/>
<path d="M82.2715 98.0898C82.2715 98.9193 82.1758 99.7214 81.9844 100.496C81.793 101.262 81.515 101.982 81.1504 102.656C80.7949 103.331 80.3574 103.951 79.8379 104.516C79.3275 105.072 78.7487 105.55 78.1016 105.951C77.4635 106.352 76.7663 106.667 76.0098 106.895C75.2533 107.113 74.4512 107.223 73.6035 107.223C72.7832 107.223 71.9993 107.118 71.252 106.908C70.5137 106.699 69.821 106.407 69.1738 106.033C68.5267 105.65 67.9388 105.195 67.4102 104.666C66.8906 104.128 66.444 103.536 66.0703 102.889C65.7057 102.232 65.4186 101.531 65.209 100.783C65.0085 100.036 64.9082 99.2565 64.9082 98.4453C64.9082 97.6523 65.0039 96.8776 65.1953 96.1211C65.3867 95.3555 65.6602 94.6354 66.0156 93.9609C66.3802 93.2865 66.8177 92.6667 67.3281 92.1016C67.8385 91.5365 68.4082 91.0488 69.0371 90.6387C69.6751 90.2285 70.3633 89.9095 71.1016 89.6816C71.8398 89.4538 72.6191 89.3398 73.4395 89.3398C74.7611 89.3398 75.9642 89.5449 77.0488 89.9551C78.1426 90.3652 79.0723 90.9531 79.8379 91.7188C80.6126 92.4753 81.2096 93.3958 81.6289 94.4805C82.0573 95.556 82.2715 96.7591 82.2715 98.0898ZM76.2012 98.4453C76.2012 98.0534 76.1419 97.6751 76.0234 97.3105C75.9141 96.9368 75.75 96.6087 75.5312 96.3262C75.3125 96.0345 75.0391 95.8021 74.7109 95.6289C74.3919 95.4466 74.0228 95.3555 73.6035 95.3555C73.1751 95.3555 72.7923 95.4329 72.4551 95.5879C72.1178 95.7428 71.8262 95.957 71.5801 96.2305C71.3431 96.4948 71.1608 96.8092 71.0332 97.1738C70.9056 97.5293 70.8418 97.9076 70.8418 98.3086C70.8418 98.6914 70.8965 99.0742 71.0059 99.457C71.1152 99.8398 71.2793 100.186 71.498 100.496C71.7168 100.806 71.9857 101.057 72.3047 101.248C72.6328 101.439 73.0111 101.535 73.4395 101.535C73.8678 101.535 74.2507 101.453 74.5879 101.289C74.9342 101.116 75.2259 100.888 75.4629 100.605C75.6999 100.314 75.8822 99.9811 76.0098 99.6074C76.1374 99.2337 76.2012 98.8464 76.2012 98.4453Z" fill="#014FFF"/>
<path d="M22.375 106.566L15.5938 107.441L14.7734 104.352H11.6562L10.9727 107.441L4 106.758L9.44141 88.5469L17.043 88.1641L22.375 106.566ZM14.2812 100.168L13.2422 95.4102L12.2305 100.168H14.2812Z" stroke="white" stroke-width="6" mask="url(#path-3-outside-1_1177_21)"/>
<path d="M41.2559 88.1367L40.2715 106.676L33.1074 107.332L29.2793 97.4062L28.6777 107.523H22.5254L23.0176 88.1367L29.8535 87.8086L34.584 97.6523L34.8027 88.3555L41.2559 88.1367ZM37.3457 83.7891C37.3457 84.3177 37.25 84.8099 37.0586 85.2656C36.8672 85.7214 36.6029 86.1178 36.2656 86.4551C35.9375 86.7923 35.5456 87.0566 35.0898 87.248C34.6432 87.4395 34.1647 87.5352 33.6543 87.5352C33.2533 87.5352 32.9115 87.4622 32.6289 87.3164C32.3464 87.1706 32.1048 86.9883 31.9043 86.7695C31.7129 86.5508 31.5443 86.3138 31.3984 86.0586C31.2617 85.8034 31.1341 85.5664 31.0156 85.3477C30.8971 85.1289 30.7741 84.9466 30.6465 84.8008C30.528 84.6549 30.3913 84.582 30.2363 84.582C30.1361 84.582 30.0495 84.6139 29.9766 84.6777C29.9036 84.7324 29.8444 84.8008 29.7988 84.8828C29.7624 84.9648 29.735 85.056 29.7168 85.1562C29.6986 85.2565 29.6895 85.3477 29.6895 85.4297C29.6895 85.7031 29.7214 85.972 29.7852 86.2363C29.8581 86.4915 29.9447 86.7422 30.0449 86.9883L26.709 87.2617C26.5996 86.8789 26.5221 86.4961 26.4766 86.1133C26.431 85.7214 26.4082 85.3385 26.4082 84.9648C26.4082 84.4089 26.4811 83.8893 26.627 83.4062C26.7728 82.9232 26.987 82.5039 27.2695 82.1484C27.5612 81.793 27.9167 81.515 28.3359 81.3145C28.7643 81.1048 29.2611 81 29.8262 81C30.3275 81 30.7422 81.0775 31.0703 81.2324C31.3984 81.3874 31.6719 81.5788 31.8906 81.8066C32.1094 82.0345 32.278 82.2852 32.3965 82.5586C32.5241 82.832 32.638 83.0827 32.7383 83.3105C32.8385 83.5384 32.9342 83.7298 33.0254 83.8848C33.1165 84.0397 33.235 84.1172 33.3809 84.1172C33.5632 84.1172 33.7044 84.0352 33.8047 83.8711C33.9049 83.707 33.9551 83.543 33.9551 83.3789C33.9551 83.1055 33.9004 82.8411 33.791 82.5859C33.6816 82.3216 33.5632 82.0846 33.4355 81.875L36.8262 81.3281C36.9811 81.7292 37.1042 82.1348 37.1953 82.5449C37.2956 82.946 37.3457 83.3607 37.3457 83.7891Z" stroke="white" stroke-width="6" mask="url(#path-3-outside-1_1177_21)"/>
<path d="M49.7598 88.4922L48.2559 107.113L42.4863 107.414V88.875L49.7598 88.4922Z" stroke="white" stroke-width="6" mask="url(#path-3-outside-1_1177_21)"/>
<path d="M65.168 88.1914L65.0312 93.9883L60.957 94.1523L59.918 107.113L54.1484 107.414L54.1758 94.4531L50.1016 94.6719L50.2656 88.2188L65.168 88.1914Z" stroke="white" stroke-width="6" mask="url(#path-3-outside-1_1177_21)"/>
<path d="M82.2715 98.0898C82.2715 98.9193 82.1758 99.7214 81.9844 100.496C81.793 101.262 81.515 101.982 81.1504 102.656C80.7949 103.331 80.3574 103.951 79.8379 104.516C79.3275 105.072 78.7487 105.55 78.1016 105.951C77.4635 106.352 76.7663 106.667 76.0098 106.895C75.2533 107.113 74.4512 107.223 73.6035 107.223C72.7832 107.223 71.9993 107.118 71.252 106.908C70.5137 106.699 69.821 106.407 69.1738 106.033C68.5267 105.65 67.9388 105.195 67.4102 104.666C66.8906 104.128 66.444 103.536 66.0703 102.889C65.7057 102.232 65.4186 101.531 65.209 100.783C65.0085 100.036 64.9082 99.2565 64.9082 98.4453C64.9082 97.6523 65.0039 96.8776 65.1953 96.1211C65.3867 95.3555 65.6602 94.6354 66.0156 93.9609C66.3802 93.2865 66.8177 92.6667 67.3281 92.1016C67.8385 91.5365 68.4082 91.0488 69.0371 90.6387C69.6751 90.2285 70.3633 89.9095 71.1016 89.6816C71.8398 89.4538 72.6191 89.3398 73.4395 89.3398C74.7611 89.3398 75.9642 89.5449 77.0488 89.9551C78.1426 90.3652 79.0723 90.9531 79.8379 91.7188C80.6126 92.4753 81.2096 93.3958 81.6289 94.4805C82.0573 95.556 82.2715 96.7591 82.2715 98.0898ZM76.2012 98.4453C76.2012 98.0534 76.1419 97.6751 76.0234 97.3105C75.9141 96.9368 75.75 96.6087 75.5312 96.3262C75.3125 96.0345 75.0391 95.8021 74.7109 95.6289C74.3919 95.4466 74.0228 95.3555 73.6035 95.3555C73.1751 95.3555 72.7923 95.4329 72.4551 95.5879C72.1178 95.7428 71.8262 95.957 71.5801 96.2305C71.3431 96.4948 71.1608 96.8092 71.0332 97.1738C70.9056 97.5293 70.8418 97.9076 70.8418 98.3086C70.8418 98.6914 70.8965 99.0742 71.0059 99.457C71.1152 99.8398 71.2793 100.186 71.498 100.496C71.7168 100.806 71.9857 101.057 72.3047 101.248C72.6328 101.439 73.0111 101.535 73.4395 101.535C73.8678 101.535 74.2507 101.453 74.5879 101.289C74.9342 101.116 75.2259 100.888 75.4629 100.605C75.6999 100.314 75.8822 99.9811 76.0098 99.6074C76.1374 99.2337 76.2012 98.8464 76.2012 98.4453Z" stroke="white" stroke-width="6" mask="url(#path-3-outside-1_1177_21)"/>
</svg>
