<svg width="127" height="57" viewBox="0 0 127 57" fill="none" xmlns="http://www.w3.org/2000/svg">
<path d="M4.3798 14.624C4.25296 11.3127 6.83447 8.52555 10.1457 8.39871L115.069 4.37982C118.38 4.25299 121.167 6.8345 121.294 10.1458L122.519 42.1223C122.646 45.4336 120.064 48.2207 116.753 48.3476L11.8299 52.3665C8.51858 52.4933 5.73143 49.9118 5.6046 46.6005L4.3798 14.624Z" fill="#199A00"/>
<path fill-rule="evenodd" clip-rule="evenodd" d="M9.99267 4.40164L114.916 0.382751C120.435 0.171363 125.08 4.47387 125.291 9.99267L126.516 41.9692C126.727 47.488 122.425 52.1333 116.906 52.3446L11.983 56.3635C6.46418 56.5749 1.81894 52.2724 1.60756 46.7536L0.382751 14.7771C0.171364 9.25826 4.47387 4.61303 9.99267 4.40164ZM10.1458 8.39871C6.83449 8.52554 4.25299 11.3127 4.37982 14.624L5.60463 46.6005C5.73146 49.9118 8.5186 52.4933 11.8299 52.3665L116.753 48.3476C120.064 48.2207 122.646 45.4336 122.519 42.1223L121.294 10.1458C121.167 6.83449 118.38 4.25299 115.069 4.37982L10.1458 8.39871Z" fill="white"/>
<path d="M29.8665 20.3776C29.3811 19.9532 28.9268 19.6579 28.5034 19.4916C28.1051 19.2984 27.8019 19.2058 27.5937 19.2138C26.8911 19.2407 26.2645 19.5513 25.7139 20.1458C25.1884 20.7132 24.7489 21.4858 24.3954 22.4636C24.0419 23.4413 23.773 24.5853 23.5887 25.8954C23.4293 27.1785 23.3651 28.5621 23.3958 30.0464C23.4337 31.0353 23.5497 32.0212 23.7437 33.004C23.9367 33.9609 24.2048 34.8367 24.548 35.6314C24.8911 36.4262 25.2939 37.0753 25.7562 37.5788C26.2445 38.0813 26.7759 38.3476 27.3504 38.3777C27.6387 38.4188 28.0255 38.3128 28.511 38.0596C29.0215 37.7795 29.5665 37.3807 30.1461 36.8634L32.5805 41.2265C31.6285 42.2272 30.7026 42.8882 29.8028 43.2093C28.928 43.5034 28.1133 43.6649 27.3586 43.6938C26.0575 43.7437 24.884 43.3847 23.8382 42.6168C22.7925 41.849 21.8803 40.8285 21.1019 39.5553C20.3494 38.281 19.7461 36.8187 19.292 35.1682C18.8639 33.5167 18.6039 31.8327 18.5121 30.1162C18.4113 28.1655 18.5192 26.2199 18.8358 24.2792C19.1784 22.3376 19.7247 20.6097 20.4746 19.0955C21.2234 17.5553 22.192 16.3064 23.3802 15.3488C24.5683 14.3911 25.9836 13.9199 27.626 13.9352C28.2256 13.9383 28.8411 14.019 29.4726 14.1772C30.1041 14.3354 30.8052 14.6083 31.5758 14.9958L29.8665 20.3776Z" fill="white"/>
<path d="M41.2585 38.1577C41.7279 38.1658 42.0967 37.9302 42.365 37.4508C42.6333 36.9714 42.8321 36.3775 42.9613 35.6689C43.1166 34.9593 43.2168 34.1736 43.262 33.3119C43.3071 32.4501 43.3413 31.641 43.3644 30.8843C43.3796 29.9195 43.3827 28.9812 43.3739 28.0694C43.365 27.1576 43.3431 26.2463 43.3083 25.3355C43.2704 24.3467 43.234 23.3968 43.1991 22.486C43.1642 21.5753 43.1158 20.6519 43.0539 19.7161C42.991 18.7543 42.9271 17.7664 42.8622 16.7525C42.7973 15.7387 42.7159 14.6342 42.618 13.4392L47.3802 13.2567C47.5509 15.6739 47.6732 17.8452 47.747 19.7709C47.8207 21.6966 47.895 23.6353 47.9697 25.587C48.0076 26.5758 48.044 27.5257 48.0789 28.4364C48.1138 29.3472 48.1201 30.194 48.098 30.9766C48.0727 32.3588 47.996 33.756 47.8676 35.1682C47.7393 36.5804 47.4373 37.882 46.9617 39.0729C46.5112 40.2369 45.8314 41.2011 44.9225 41.9656C44.0396 42.7291 42.844 43.1528 41.3357 43.2366C39.9295 43.2644 38.7706 42.944 37.8589 42.2753C36.9732 41.6055 36.2617 40.7207 35.7245 39.6206C35.1872 38.5206 34.7885 37.298 34.5285 35.9528C34.2935 34.5806 34.1111 33.2194 33.9812 31.8692C33.8913 30.8823 33.8119 29.8299 33.743 28.7119C33.7001 27.5929 33.6578 26.487 33.6159 25.394C33.5441 23.5204 33.4839 21.6073 33.4351 19.6546C33.4124 17.7009 33.3637 15.7482 33.2889 13.7965L38.0511 13.6141C38.0688 15.4377 38.099 17.2477 38.1418 19.0443C38.1835 20.8148 38.2388 22.5979 38.3076 24.3934C38.3953 26.6834 38.5235 29.0109 38.6923 31.376C38.7472 32.1297 38.8292 32.9083 38.9382 33.712C39.0722 34.4887 39.2432 35.2119 39.4513 35.8815C39.6583 36.5251 39.9005 37.0631 40.1776 37.4955C40.4808 37.9269 40.8411 38.1477 41.2585 38.1577Z" fill="white"/>
<path d="M54.6254 22.7911L55.3879 42.6984L50.6258 42.8808L49.488 13.176L54.3282 12.9906L58.5308 19.6315C59.1385 18.4876 59.7712 17.3167 60.429 16.1188C61.0867 14.9208 61.6944 13.777 62.2521 12.6871L67.0923 12.5017L68.2301 42.2065L63.4679 42.3889L62.7069 22.5207C62.3165 23.2132 61.952 23.9047 61.6136 24.5953C61.2752 25.2858 60.9358 25.9503 60.5955 26.5888L57.0434 26.7249L54.6254 22.7911Z" fill="white"/>
<path d="M70.0256 42.1377L68.8953 12.6281C69.5179 12.5521 70.1144 12.4772 70.6849 12.4032C71.2554 12.3292 71.6838 12.2868 71.97 12.2758C73.7656 12.207 75.2969 12.3829 76.5639 12.8035C77.8309 13.224 78.8702 13.8227 79.6818 14.5995C80.4934 15.3763 81.0892 16.3047 81.4694 17.3847C81.8486 18.4387 82.0616 19.5772 82.1084 20.8002C82.1433 21.711 82.0375 22.6924 81.7912 23.7442C81.5448 24.7961 81.1143 25.8029 80.4996 26.7646C79.8849 27.7264 79.058 28.592 78.019 29.3615C76.979 30.1049 75.6838 30.6497 74.1334 30.9958L74.5536 41.9643L70.0256 42.1377ZM77.2682 20.9856C77.2313 20.0228 76.9252 19.1745 76.3498 18.4408C75.7995 17.68 74.8857 17.2981 73.6086 17.2949L73.9196 25.4139C75.1607 25.1579 76.0391 24.6161 76.5546 23.7884C77.0692 22.9348 77.3071 22.0005 77.2682 20.9856Z" fill="white"/>
<path d="M88.6014 11.7169L89.5389 36.1912L96.2527 35.934L96.4501 41.0865L84.857 41.5305L83.7222 11.9038L88.6014 11.7169Z" fill="white"/>
<path d="M108.704 10.9469L108.9 16.0604L102.186 16.3175L102.506 24.6708L108.127 24.4555L108.326 29.647L102.705 29.8623L102.929 35.7174C104.022 35.6755 105.154 35.6322 106.325 35.5873C107.521 35.5154 108.626 35.4601 109.641 35.4212L109.84 40.6127L98.2471 41.0567L97.1108 11.391L108.704 10.9469Z" fill="white"/>
</svg>
