<svg width="375" height="48" viewBox="0 0 375 48" fill="none" xmlns="http://www.w3.org/2000/svg">
<path d="M18.3252 40.912C16.0264 35.1558 13.746 29.3955 11.484 23.6312C9.22265 17.8676 6.97907 12.1 4.75513 6.32912C10.0505 6.80306 15.3471 7.25642 20.6449 7.68987C25.9433 8.12265 31.2418 8.53486 36.542 8.92583C33.5418 14.2706 30.5238 19.608 27.4879 24.9389C24.4515 30.2697 21.3979 35.5945 18.3252 40.912Z" fill="#FF4D4D"/>
<mask id="mask0_1148_1444" style="mask-type:luminance" maskUnits="userSpaceOnUse" x="4" y="6" width="33" height="35">
<path d="M11.4838 23.6314C13.7464 29.3957 16.0262 35.156 18.3257 40.9123C21.3977 35.5941 24.4513 30.2699 27.4884 24.939C30.5242 19.6076 33.5422 14.2708 36.5418 8.92603C31.2422 8.53506 25.9431 8.12285 20.6453 7.6894C15.3475 7.25728 10.0509 6.80393 4.75494 6.32933C6.9795 12.1002 9.22247 17.8678 11.4838 23.6314Z" fill="white"/>
</mask>
<g mask="url(#mask0_1148_1444)">
<path d="M4.44163 12.681C5.46646 11.2738 6.77112 10.1361 7.88002 8.80851C8.92388 10.2721 9.84377 11.8314 10.9416 13.2558C11.1668 13.5479 11.6277 13.601 11.8922 13.3375C13.3018 11.9283 14.6163 10.4188 15.997 8.98176C16.9059 10.6412 17.8914 12.2104 19.0875 13.672C19.2808 13.909 19.6275 14.0006 19.8938 13.8519C20.6229 13.445 21.2046 12.6146 21.7662 11.9953C22.4651 11.224 23.8729 10.1832 24.2503 9.22404C24.2767 9.19417 24.3055 9.16629 24.3325 9.13708C24.5743 9.58381 24.9235 10.0119 25.1763 10.4242C26.0729 11.8918 26.9639 13.3634 27.9176 14.7905C28.1987 15.212 28.724 15.0407 28.9835 14.7268C30.2041 13.2479 31.4542 11.8015 32.7226 10.373C33.7033 12.3723 34.7956 14.2887 36.0199 16.1353C36.5243 16.896 37.5363 15.9375 37.0355 15.1835C35.6879 13.1516 34.5231 11.0488 33.4836 8.82312C33.3032 8.43547 32.7472 8.25492 32.4397 8.59677C31.0995 10.0889 29.7924 11.6136 28.5024 13.1576C27.3708 11.2977 26.3889 9.11252 24.9757 7.55928C24.7768 7.3409 24.4381 7.2161 24.1705 7.38205C22.991 8.11154 22.0086 9.65218 21.0752 10.6877C20.8573 10.9293 19.746 12.4878 19.4078 12.4646C19.911 12.4991 18.5076 10.5921 18.48 10.5496C17.8423 9.57783 17.2907 8.543 16.7494 7.5075C16.5463 7.11986 16.0406 6.93732 15.7062 7.27319C14.2763 8.71027 12.9403 10.2489 11.5271 11.7072C10.4581 10.225 9.52711 8.63991 8.41698 7.19154C8.12856 6.81584 7.61369 6.88554 7.35288 7.24531C6.14824 8.90609 4.54718 10.1878 3.33702 11.848C2.80067 12.5841 3.90835 13.4125 4.44163 12.681Z" fill="#FF8686"/>
<path d="M32.8667 32.3779C32.6838 31.991 32.1223 31.8097 31.8124 32.1516C30.4605 33.6438 29.1423 35.1678 27.8419 36.7118C26.6968 34.8512 25.7027 32.6654 24.2741 31.1114C24.0734 30.8931 23.731 30.7683 23.4616 30.9336C22.2704 31.663 21.2812 33.2037 20.3392 34.2385C20.1201 34.4801 18.9996 36.0387 18.6577 36.0155C19.1652 36.05 17.7464 34.1423 17.7188 34.0998C17.0739 33.1273 16.5154 32.0919 15.9674 31.057C15.7624 30.6694 15.2519 30.4862 14.915 30.822C13.4722 32.2591 12.1252 33.7978 10.699 35.2548C9.61899 33.7725 8.677 32.1868 7.55337 30.7377C7.26249 30.3614 6.74271 30.4311 6.47945 30.7908C5.265 32.4516 3.65043 33.7327 2.42984 35.3922C1.88919 36.1276 3.00914 36.9567 3.54611 36.2252C4.57953 34.8187 5.89585 33.6816 7.01334 32.3547C8.06947 33.8183 8.99979 35.3782 10.1099 36.8034C10.3376 37.0954 10.8034 37.1492 11.0697 36.885C12.4916 35.4765 13.8171 33.9677 15.2101 32.5306C16.1294 34.1907 17.1266 35.7606 18.3349 37.2229C18.5307 37.4592 18.8811 37.5514 19.1499 37.4028C19.8857 36.9965 20.4718 36.1668 21.0382 35.5468C21.7433 34.7755 23.1633 33.7354 23.5438 32.7762C23.5708 32.7463 23.599 32.7185 23.626 32.6893C23.8709 33.1366 24.2243 33.5641 24.4796 33.977C25.3866 35.4446 26.2875 36.9169 27.2522 38.3447C27.5369 38.7655 28.0672 38.5949 28.3286 38.2809C29.5596 36.802 30.8201 35.3563 32.0996 33.9279C33.0919 35.9278 34.1965 37.8448 35.4349 39.6915C35.9448 40.4522 36.9654 39.4937 36.4591 38.7396C35.0967 36.7078 33.9179 34.6043 32.8667 32.3779Z" fill="#FF8686"/>
<path d="M32.33 16.629C30.9861 18.1219 29.6753 19.6452 28.3817 21.1899C27.2458 19.3293 26.259 17.1441 24.8402 15.5915C24.6414 15.3725 24.3014 15.2477 24.0332 15.413C22.8494 16.1431 21.8651 17.6838 20.9286 18.7193C20.7102 18.9609 19.5964 20.5194 19.2564 20.4962C19.7608 20.5307 18.3525 18.623 18.3248 18.5812C17.6848 17.6088 17.1306 16.5739 16.5869 15.5384C16.3832 15.1508 15.8763 14.9682 15.5406 15.3041C14.1065 16.7412 12.7668 18.2805 11.3493 19.7382C10.2766 18.2559 9.34132 16.6702 8.2269 15.2218C7.93724 14.8461 7.42115 14.9158 7.15911 15.2756C5.95141 16.937 4.34605 18.2181 3.1322 19.8782C2.59402 20.6137 3.70599 21.4428 4.24111 20.7113C5.26839 19.3041 6.57735 18.1663 7.68871 16.8388C8.73686 18.3024 9.66104 19.8616 10.7626 21.2861C10.9884 21.5788 11.4517 21.6326 11.7162 21.3684C13.1301 19.9599 14.4483 18.4498 15.8333 17.0127C16.7453 18.6721 17.7351 20.2413 18.9354 21.7036C19.1294 21.9399 19.4779 22.0322 19.7449 21.8835C20.4764 21.4773 21.0594 20.6469 21.6227 20.0269C22.3235 19.2556 23.7356 18.2155 24.1136 17.2556C24.1406 17.2258 24.1688 17.1979 24.1958 17.1687C24.4388 17.6161 24.7899 18.0429 25.0427 18.4557C25.9436 19.9234 26.8377 21.3956 27.795 22.8228C28.0779 23.2436 28.6044 23.073 28.8646 22.7584C30.0889 21.2795 31.3426 19.8338 32.6142 18.4053C33.5991 20.4046 34.6963 22.3216 35.9249 24.1676C36.4312 24.9283 37.4456 23.9698 36.9436 23.2157C35.5911 21.1845 34.4208 19.081 33.3776 16.8547C33.1959 16.4677 32.6381 16.2872 32.33 16.629Z" fill="#FF8686"/>
<path d="M31.8123 24.6304C30.464 26.1225 29.1496 27.6459 27.8516 29.1905C26.7114 27.3293 25.7216 25.1435 24.2979 23.5909C24.0978 23.3718 23.7566 23.247 23.4878 23.4123C22.3004 24.1418 21.313 25.6824 20.3734 26.7173C20.1544 26.9589 19.0375 28.5174 18.6963 28.4942C19.2026 28.5287 17.7887 26.621 17.7617 26.5785C17.1185 25.6061 16.5626 24.5713 16.017 23.5358C15.812 23.1481 15.3033 22.9656 14.967 23.3008C13.5286 24.7379 12.1846 26.2765 10.7628 27.7335C9.68638 26.2513 8.74807 24.6655 7.62874 23.2172C7.33847 22.8408 6.82053 22.9105 6.55788 23.2703C5.3465 24.931 3.73622 26.2115 2.51932 27.8716C1.97929 28.6071 3.09555 29.4361 3.63129 28.7046C4.66225 27.2981 5.9749 26.161 7.08932 24.8335C8.14177 26.2978 9.06841 27.857 10.1749 29.2821C10.4013 29.5742 10.8659 29.628 11.1316 29.3638C12.5498 27.9559 13.8716 26.4465 15.261 25.01C16.1766 26.6695 17.1701 28.2393 18.3747 29.7016C18.5693 29.9386 18.9184 30.0302 19.1866 29.8815C19.9206 29.4753 20.5054 28.6449 21.07 28.0256C21.7732 27.2543 23.1896 26.2141 23.5688 25.2543C23.5958 25.2251 23.6241 25.1972 23.6517 25.168C23.8953 25.6147 24.2476 26.0422 24.5016 26.4557C25.4055 27.9234 26.3027 29.3956 27.2637 30.8228C27.5473 31.2443 28.0762 31.0737 28.3364 30.759C29.5644 29.2801 30.8218 27.8351 32.0982 26.4066C33.0862 28.4059 34.1878 30.3236 35.4207 32.1702C35.9288 32.9303 36.9469 31.9731 36.4424 31.2184C35.085 29.1865 33.9104 27.083 32.8635 24.8567C32.6812 24.4691 32.1216 24.2885 31.8123 24.6304Z" fill="#FF8686"/>
</g>
<path d="M60.7044 43.9399C58.3062 38.2314 55.927 32.5182 53.5656 26.8024C51.2048 21.0853 48.8624 15.3648 46.5391 9.64038C51.84 10.0061 57.1421 10.3513 62.4448 10.6759C67.7475 11.0005 73.0515 11.3045 78.3555 11.5879C75.4503 16.9924 72.5268 22.3909 69.5849 27.7828C66.6429 33.1747 63.6826 38.5606 60.7044 43.9399Z" fill="#199A00"/>
<mask id="mask1_1148_1444" style="mask-type:luminance" maskUnits="userSpaceOnUse" x="46" y="9" width="33" height="35">
<path d="M53.5657 26.8023C55.9265 32.5187 58.3069 38.2312 60.7039 43.9397C63.6827 38.5605 66.6424 33.1745 69.5849 27.7827C72.5269 22.3908 75.4504 16.9923 78.3555 11.5884C73.0516 11.3043 67.7476 11.0003 62.4443 10.6757C57.1415 10.3518 51.8394 10.006 46.5385 9.6409C48.8625 15.3647 51.2049 21.0858 53.5657 26.8023Z" fill="white"/>
</mask>
<g mask="url(#mask1_1148_1444)">
<path d="M49.3419 12.9462C48.5809 12.9601 45.7765 17.6205 46.1324 18.1409C46.4877 18.6627 50.6355 22.1462 51.2786 21.8063C51.9218 21.4685 54.8858 17.5515 54.6955 16.7556C54.5047 15.9617 50.336 12.9303 49.3419 12.9462Z" fill="#157F03"/>
<path d="M62.122 6.1061C61.4003 5.85586 57.3593 9.29291 57.5385 9.90823C57.7171 10.5249 60.5817 15.259 61.2905 15.1607C61.9993 15.0638 65.9752 12.3875 66.0335 11.5683C66.0918 10.7512 63.0652 6.436 62.122 6.1061Z" fill="#157F03"/>
<path d="M67.3526 24.091C66.6149 24.3074 64.9678 29.5705 65.4355 29.9794C65.9025 30.3903 70.7456 32.6611 71.2911 32.1606C71.8373 31.6614 73.8078 27.0774 73.4383 26.3565C73.0695 25.6383 68.316 23.8109 67.3526 24.091Z" fill="#157F03"/>
<path d="M51.5335 30.0839C51.0002 30.6746 52.1103 36.101 52.7117 36.1959C53.3119 36.2929 58.5674 35.5893 58.7944 34.8604C59.0215 34.1336 58.5152 29.1134 57.8549 28.6959C57.1946 28.2804 52.23 29.3145 51.5335 30.0839Z" fill="#157F03"/>
<path d="M57.3804 18.8171C56.7538 19.2871 56.8624 24.8389 57.4319 25.0547C58.0008 25.2731 63.263 25.6627 63.6165 24.9936C63.97 24.3272 64.3768 19.2984 63.8061 18.7527C63.2348 18.2091 58.1984 18.2051 57.3804 18.8171Z" fill="#157F03"/>
<path d="M61.65 36.4543C61.172 37.0975 62.7767 42.3839 63.3849 42.4157C63.9924 42.4496 69.1687 41.203 69.3276 40.4536C69.4872 39.7062 68.5237 34.7624 67.8272 34.4152C67.1307 34.0707 62.2741 35.616 61.65 36.4543Z" fill="#157F03"/>
<path d="M73.6595 12.4976C72.9022 12.4285 69.6731 16.7571 69.9769 17.3133C70.2806 17.8715 74.0713 21.7905 74.7432 21.523C75.4146 21.2568 78.7339 17.685 78.6198 16.8732C78.505 16.0621 74.6493 12.5905 73.6595 12.4976Z" fill="#157F03"/>
</g>
<path d="M103.118 46.1027C100.621 40.444 98.1432 34.7806 95.6836 29.1133C93.224 23.4459 90.7828 17.7746 88.3607 12.0979C93.6658 12.3562 98.9716 12.5931 104.278 12.8088C109.584 13.0252 114.891 13.2211 120.198 13.397C117.389 18.8592 114.56 24.3161 111.713 29.7671C108.866 35.2181 106.001 40.6637 103.118 46.1027Z" fill="#FFC900"/>
<mask id="mask2_1148_1444" style="mask-type:luminance" maskUnits="userSpaceOnUse" x="88" y="12" width="33" height="35">
<path d="M95.6831 29.1135C98.1427 34.7808 100.621 40.4435 103.118 46.1023C106.001 40.6639 108.865 35.2183 111.713 29.7673C114.56 24.3163 117.388 18.8594 120.199 13.3965C114.891 13.2213 109.584 13.0254 104.278 12.809C98.9718 12.5927 93.666 12.3557 88.3608 12.0981C90.7829 17.7741 93.2241 23.4461 95.6831 29.1135Z" fill="white"/>
</mask>
<g mask="url(#mask2_1148_1444)">
<path d="M91.1783 10.6977C91.2691 15.8207 90.8739 20.9385 91.0991 26.0609C91.1396 26.9842 92.4915 27.0565 92.4498 26.1233C92.2215 21.0015 92.6142 15.8838 92.5204 10.7608C92.5032 9.83279 91.1617 9.76375 91.1783 10.6977Z" fill="#FF9F00"/>
<path d="M95.7649 8.87528C95.2328 16.8718 94.6989 24.8684 94.1626 32.8649C94.1 33.7949 95.455 33.8553 95.5169 32.9254C96.0484 24.9288 96.5786 16.9322 97.1057 8.93502C97.1671 8.0044 95.8268 7.94599 95.7649 8.87528Z" fill="#FF9F00"/>
<path d="M100.196 10.1799C99.5836 22.5554 98.9693 34.9302 98.3525 47.3051C98.3059 48.2364 99.6695 48.2954 99.7155 47.3635C100.325 34.988 100.932 22.6125 101.538 10.237C101.583 9.30567 100.242 9.24859 100.196 10.1799Z" fill="#FF9F00"/>
<path d="M104.677 8.82085C104.325 23.1492 103.687 37.4656 102.747 51.7634C102.686 52.694 104.051 52.7485 104.112 51.8185C105.044 37.5207 105.674 23.2036 106.018 8.87528C106.04 7.94399 104.7 7.88691 104.677 8.82085Z" fill="#FF9F00"/>
<path d="M108.859 9.01463C108.348 20.8233 108.059 32.6399 108.001 44.4611C107.996 45.3924 109.358 45.4482 109.362 44.5136C109.414 32.6917 109.697 20.875 110.2 9.0664C110.24 8.13445 108.899 8.08268 108.859 9.01463Z" fill="#FF9F00"/>
<path d="M112.736 9.66998C112.78 17.8916 112.826 26.1125 112.876 34.334C112.881 35.264 114.238 35.3178 114.231 34.3825C114.177 26.1616 114.126 17.94 114.078 9.7191C114.072 8.78914 112.732 8.73538 112.736 9.66998Z" fill="#FF9F00"/>
<path d="M117.344 9.33001C116.846 14.2387 116.72 19.142 116.974 24.0719C117.021 24.9965 118.372 25.051 118.323 24.1184C118.067 19.1878 118.19 14.2845 118.685 9.37581C118.779 8.44851 117.438 8.40802 117.344 9.33001Z" fill="#FF9F00"/>
</g>
<path d="M145.553 47.4001C142.958 41.7938 140.383 36.1822 137.826 30.566C135.268 24.9491 132.729 19.3282 130.209 13.7027C135.516 13.852 140.825 13.9808 146.134 14.089C151.442 14.1972 156.751 14.2848 162.06 14.3518C159.345 19.8705 156.612 25.3845 153.862 30.8926C151.11 36.4006 148.341 41.9034 145.553 47.4001Z" fill="#FF4D4D"/>
<mask id="mask3_1148_1444" style="mask-type:luminance" maskUnits="userSpaceOnUse" x="130" y="13" width="33" height="35">
<path d="M137.826 30.5659C140.383 36.1822 142.958 41.7931 145.553 47.4C148.341 41.9033 151.11 36.4005 153.862 30.8925C156.612 25.3844 159.345 19.8704 162.06 14.3518C156.751 14.2847 151.442 14.1971 146.134 14.0889C140.825 13.9807 135.516 13.8526 130.209 13.7026C132.729 19.3288 135.268 24.949 137.826 30.5659Z" fill="white"/>
</mask>
<g mask="url(#mask3_1148_1444)">
<path d="M130.228 20.0633C131.177 18.5957 132.419 17.3797 133.456 15.987C134.574 17.3843 135.573 18.8844 136.743 20.2399C136.983 20.5173 137.445 20.5426 137.695 20.2631C139.028 18.7703 140.261 17.1825 141.564 15.6631C142.557 17.2648 143.622 18.7709 144.892 20.1576C145.096 20.3819 145.447 20.4523 145.706 20.2877C146.412 19.837 146.949 18.9721 147.476 18.3196C148.134 17.5064 149.484 16.3813 149.811 15.4003C149.836 15.3691 149.862 15.3399 149.888 15.3093C150.153 15.7401 150.524 16.1457 150.797 16.542C151.768 17.9525 152.734 19.3677 153.76 20.7344C154.063 21.1373 154.578 20.9349 154.821 20.605C155.962 19.0537 157.133 17.5337 158.324 16.0302C159.407 17.9658 160.597 19.8131 161.915 21.5814C162.458 22.3095 163.418 21.2913 162.879 20.5691C161.428 18.6229 160.156 16.5944 159.003 14.4351C158.802 14.0601 158.238 13.9134 157.949 14.2738C156.69 15.8457 155.465 17.4474 154.259 19.0676C153.032 17.2801 151.938 15.158 150.447 13.6944C150.237 13.4886 149.893 13.3844 149.635 13.5662C148.496 14.3668 147.597 15.9651 146.719 17.0557C146.515 17.3106 145.487 18.9349 145.148 18.9322C145.651 18.9356 144.152 17.1175 144.123 17.077C143.435 16.1457 142.831 15.146 142.237 14.1457C142.014 13.7713 141.5 13.6193 141.184 13.9751C139.832 15.4978 138.58 17.1161 137.246 18.6574C136.103 17.2436 135.091 15.7182 133.907 14.3395C133.6 13.9818 133.09 14.0833 132.848 14.4584C131.733 16.1908 130.203 17.5675 129.082 19.2993C128.586 20.0666 129.734 20.826 130.228 20.0633Z" fill="#FF8686"/>
<path d="M159.617 37.9905C159.414 37.6155 158.844 37.4688 158.553 37.8292C157.282 39.4017 156.046 41.0041 154.829 42.6244C153.59 40.8368 152.483 38.7154 150.977 37.2518C150.765 37.046 150.417 36.9424 150.156 37.1237C149.007 37.9248 148.099 39.5239 147.214 40.6145C147.008 40.8687 145.971 42.4936 145.629 42.491C146.137 42.4943 144.622 40.6762 144.593 40.6357C143.898 39.7051 143.288 38.7054 142.686 37.7051C142.461 37.3301 141.942 37.1794 141.623 37.5345C140.259 39.0579 138.995 40.6762 137.649 42.2182C136.494 40.8043 135.471 39.2789 134.275 37.9009C133.965 37.5432 133.45 37.6441 133.206 38.0191C132.081 39.7522 130.537 41.1296 129.406 42.8614C128.906 43.6287 130.065 44.3881 130.564 43.6247C131.521 42.1571 132.775 40.941 133.82 39.5484C134.951 40.9457 135.96 42.4452 137.142 43.7999C137.384 44.0781 137.852 44.1033 138.104 43.8232C139.45 42.3303 140.693 40.7426 142.007 39.2225C143.011 40.8242 144.088 42.3303 145.37 43.7163C145.578 43.9407 145.932 44.011 146.193 43.8464C146.906 43.3957 147.447 42.5308 147.98 41.8776C148.643 41.0645 150.006 39.9394 150.335 38.9583C150.361 38.9271 150.387 38.8973 150.413 38.8667C150.68 39.2982 151.055 39.7031 151.331 40.1C152.313 41.5099 153.289 42.9244 154.326 44.2911C154.632 44.6941 155.152 44.4909 155.396 44.161C156.548 42.6098 157.73 41.0891 158.932 39.5856C160.027 41.5212 161.229 43.3678 162.561 45.1361C163.109 45.8636 164.078 44.8447 163.534 44.1232C162.068 42.1777 160.782 40.1492 159.617 37.9905Z" fill="#FF8686"/>
<path d="M158.259 22.3C156.996 23.8719 155.767 25.4742 154.557 27.0952C153.327 25.307 152.228 23.1855 150.732 21.7212C150.521 21.5155 150.176 21.4119 149.917 21.5938C148.774 22.3943 147.872 23.9927 146.992 25.0839C146.787 25.3382 145.756 26.9624 145.417 26.9604C145.922 26.9638 144.416 25.1457 144.387 25.1052C143.697 24.1739 143.091 23.1742 142.494 22.1739C142.27 21.7996 141.755 21.6482 141.438 22.004C140.082 23.526 138.826 25.145 137.487 26.6863C136.34 25.2731 135.324 23.7471 134.137 22.3691C133.828 22.0113 133.317 22.1122 133.074 22.4879C131.956 24.2204 130.421 25.5977 129.297 27.3288C128.799 28.0962 129.951 28.8562 130.447 28.0929C131.398 26.6252 132.645 25.4092 133.684 24.0159C134.806 25.4132 135.809 26.9133 136.983 28.2681C137.223 28.5462 137.688 28.5714 137.939 28.292C139.276 26.7991 140.512 25.2114 141.819 23.692C142.816 25.293 143.885 26.7991 145.159 28.1851C145.365 28.4101 145.717 28.4805 145.976 28.3159C146.684 27.8645 147.223 27.0003 147.752 26.3471C148.412 25.534 149.766 24.4089 150.093 23.4278C150.118 23.3966 150.145 23.3667 150.171 23.3362C150.436 23.7677 150.809 24.1726 151.083 24.5695C152.058 25.9794 153.027 27.3946 154.058 28.7606C154.361 29.1642 154.878 28.9617 155.121 28.6318C156.265 27.0799 157.441 25.5599 158.636 24.0564C159.722 25.992 160.917 27.8386 162.24 29.6069C162.785 30.3351 163.747 29.3162 163.206 28.594C161.751 26.6485 160.473 24.6206 159.316 22.4613C159.115 22.0863 158.548 21.9396 158.259 22.3Z" fill="#FF8686"/>
<path d="M158.16 30.3202C156.893 31.892 155.661 33.4937 154.447 35.1147C153.212 33.3271 152.109 31.205 150.608 29.7414C150.397 29.5356 150.05 29.4321 149.79 29.6133C148.644 30.4138 147.739 32.0122 146.856 33.1034C146.65 33.3577 145.616 34.9819 145.275 34.9799C145.782 34.9833 144.272 33.1652 144.242 33.1247C143.55 32.1927 142.942 31.1931 142.343 30.1934C142.118 29.8184 141.601 29.6671 141.284 30.0228C139.922 31.5455 138.663 33.1638 137.321 34.7051C136.169 33.2913 135.149 31.7659 133.958 30.3879C133.648 30.0301 133.135 30.1304 132.892 30.5061C131.77 32.2385 130.231 33.6159 129.103 35.347C128.603 36.1143 129.759 36.8744 130.256 36.111C131.211 34.6434 132.461 33.428 133.504 32.0348C134.63 33.432 135.636 34.9322 136.814 36.2869C137.055 36.5651 137.522 36.5903 137.773 36.3108C139.114 34.818 140.354 33.2302 141.666 31.7108C142.666 33.3119 143.739 34.8186 145.017 36.2046C145.223 36.429 145.577 36.5 145.836 36.3347C146.548 35.884 147.088 35.0198 147.619 34.3666C148.281 33.5535 149.639 32.4284 149.967 31.4473C149.993 31.4161 150.02 31.3869 150.046 31.3564C150.312 31.7872 150.686 32.1927 150.961 32.589C151.939 33.9995 152.911 35.4147 153.945 36.7808C154.25 37.1844 154.768 36.9812 155.013 36.652C156.16 35.1001 157.34 33.58 158.538 32.0766C159.629 34.0122 160.827 35.8588 162.155 37.6271C162.701 38.3553 163.667 37.337 163.124 36.6148C161.664 34.6686 160.382 32.6408 159.221 30.4822C159.019 30.1065 158.451 29.9598 158.16 30.3202Z" fill="#FF8686"/>
</g>
<path d="M187.831 47.8328C185.139 42.2796 182.466 36.7218 179.812 31.1586C177.157 25.5955 174.521 20.0271 171.903 14.454C177.212 14.4951 182.522 14.5157 187.831 14.5157C193.139 14.5157 198.449 14.4951 203.758 14.454C201.14 20.0271 198.504 25.5955 195.849 31.1586C193.195 36.7218 190.522 42.2796 187.831 47.8328Z" fill="#199A00"/>
<mask id="mask4_1148_1444" style="mask-type:luminance" maskUnits="userSpaceOnUse" x="171" y="14" width="33" height="34">
<path d="M187.831 14.5163C182.522 14.5163 177.212 14.4951 171.903 14.454C174.521 20.0271 177.157 25.5955 179.811 31.1586C182.466 36.7218 185.14 42.2796 187.831 47.8328C190.522 42.2796 193.195 36.7218 195.849 31.1586C198.504 25.5955 201.14 20.0271 203.758 14.454C198.449 14.4951 193.139 14.5163 187.831 14.5163Z" fill="white"/>
</mask>
<g mask="url(#mask4_1148_1444)">
<path d="M174.873 17.5832C174.115 17.6436 171.559 22.468 171.942 22.9658C172.323 23.465 176.644 26.6896 177.268 26.3106C177.892 25.9342 180.646 21.8427 180.415 21.0594C180.183 20.2782 175.864 17.5062 174.873 17.5832Z" fill="#157F03"/>
<path d="M187.27 9.97285C186.536 9.76641 182.683 13.4457 182.894 14.0491C183.104 14.6538 186.21 19.2054 186.913 19.064C187.615 18.9239 191.443 16.0086 191.459 15.1875C191.475 14.3677 188.228 10.2443 187.27 9.97285Z" fill="#157F03"/>
<path d="M193.429 27.6093C192.704 27.8709 191.335 33.2256 191.823 33.6059C192.311 33.9869 197.263 35.9584 197.782 35.4253C198.3 34.8937 200.028 30.1961 199.622 29.4998C199.216 28.8048 194.377 27.2708 193.429 27.6093Z" fill="#157F03"/>
<path d="M177.955 34.5592C177.454 35.1812 178.845 40.5319 179.45 40.5897C180.054 40.6501 185.262 39.6265 185.45 38.8851C185.639 38.145 184.872 33.164 184.191 32.7876C183.51 32.4126 178.61 33.7488 177.955 34.5592Z" fill="#157F03"/>
<path d="M183.201 22.9535C182.601 23.4612 182.999 28.9972 183.579 29.1777C184.157 29.3609 189.43 29.428 189.747 28.739C190.065 28.0519 190.209 23.0066 189.611 22.4968C189.012 21.989 183.986 22.2923 183.201 22.9535Z" fill="#157F03"/>
<path d="M188.383 40.3012C187.94 40.9729 189.818 46.1524 190.426 46.1471C191.035 46.1444 196.135 44.5832 196.255 43.8252C196.375 43.0691 195.156 38.1923 194.442 37.8883C193.729 37.5863 188.963 39.4263 188.383 40.3012Z" fill="#157F03"/>
<path d="M199.119 15.6493C198.359 15.626 195.362 20.1457 195.694 20.6827C196.026 21.221 200.015 24.9017 200.671 24.5937C201.327 24.287 204.454 20.5188 204.298 19.7143C204.142 18.9117 200.111 15.6811 199.119 15.6493Z" fill="#157F03"/>
</g>
<path d="M230.447 47.4001C227.659 41.9034 224.89 36.4006 222.138 30.8926C219.388 25.3845 216.655 19.8705 213.94 14.3518C219.249 14.2848 224.558 14.1972 229.867 14.089C235.175 13.9808 240.483 13.852 245.791 13.7027C243.271 19.3282 240.732 24.9491 238.175 30.566C235.617 36.1822 233.042 41.7938 230.447 47.4001Z" fill="#FFC900"/>
<mask id="mask5_1148_1444" style="mask-type:luminance" maskUnits="userSpaceOnUse" x="213" y="13" width="33" height="35">
<path d="M229.867 14.0888C224.558 14.197 219.249 14.2847 213.94 14.3517C216.655 19.8704 219.387 25.3844 222.139 30.8924C224.89 36.4005 227.659 41.9032 230.447 47.4C233.041 41.793 235.617 36.1821 238.175 30.5658C240.732 24.9489 243.271 19.3287 245.791 13.7025C240.484 13.8525 235.175 13.9806 229.867 14.0888Z" fill="white"/>
</mask>
<g mask="url(#mask5_1148_1444)">
<path d="M216.68 12.7815C217.039 17.8906 216.911 23.0243 217.404 28.1248C217.492 29.0448 218.845 29.0335 218.755 28.1049C218.259 23.005 218.384 17.8714 218.023 12.7623C217.957 11.8376 216.615 11.8502 216.68 12.7815Z" fill="#FF9F00"/>
<path d="M221.163 10.6815C221.049 18.698 220.934 26.7144 220.817 34.7303C220.803 35.6635 222.158 35.641 222.172 34.709C222.285 26.6925 222.396 18.6761 222.505 10.6596C222.518 9.727 221.176 9.74956 221.163 10.6815Z" fill="#FF9F00"/>
<path d="M225.654 11.7135C225.69 24.1063 225.723 36.499 225.753 48.8918C225.756 49.8251 227.119 49.7998 227.117 48.8672C227.079 36.4738 227.04 24.081 226.997 11.6883C226.994 10.7557 225.651 10.7802 225.654 11.7135Z" fill="#FF9F00"/>
<path d="M230.056 10.0826C230.453 24.4096 230.564 38.7426 230.373 53.0749C230.36 54.0075 231.727 53.9783 231.738 53.0464C231.922 38.7141 231.803 24.3817 231.398 10.0547C231.372 9.12342 230.031 9.1493 230.056 10.0826Z" fill="#FF9F00"/>
<path d="M234.242 10.0207C234.349 21.842 234.677 33.6573 235.236 45.4639C235.28 46.3925 236.642 46.3653 236.598 45.432C236.032 33.6267 235.697 21.8108 235.583 9.99018C235.574 9.05757 234.233 9.08811 234.242 10.0207Z" fill="#FF9F00"/>
<path d="M238.147 10.4382C238.62 18.6438 239.095 26.8488 239.574 35.0544C239.628 35.9824 240.985 35.9525 240.93 35.0199C240.446 26.8149 239.966 18.61 239.489 10.405C239.435 9.47701 238.093 9.50555 238.147 10.4382Z" fill="#FF9F00"/>
<path d="M242.729 9.81715C242.488 14.7484 242.619 19.651 243.129 24.5584C243.225 25.4777 244.576 25.4498 244.479 24.5219C243.966 19.6145 243.832 14.7119 244.07 9.78064C244.115 8.84936 242.774 8.89051 242.729 9.81715Z" fill="#FF9F00"/>
</g>
<path d="M272.883 46.1027C270 40.6637 267.134 35.2181 264.287 29.7671C261.44 24.3161 258.612 18.8592 255.802 13.397C261.109 13.2211 266.416 13.0252 271.722 12.8088C277.028 12.5931 282.334 12.3562 287.639 12.0979C285.217 17.7746 282.776 23.4459 280.317 29.1133C277.857 34.7806 275.379 40.444 272.883 46.1027Z" fill="#FF4D4D"/>
<mask id="mask6_1148_1444" style="mask-type:luminance" maskUnits="userSpaceOnUse" x="255" y="12" width="33" height="35">
<path d="M271.722 12.8091C266.415 13.0255 261.109 13.2213 255.801 13.3965C258.611 18.8594 261.44 24.3164 264.287 29.7673C267.134 35.2183 269.999 40.6639 272.882 46.1023C275.379 40.4436 277.857 34.7808 280.316 29.1135C282.776 23.4461 285.217 17.7741 287.64 12.0982C282.335 12.3557 277.028 12.5927 271.722 12.8091Z" fill="white"/>
</mask>
<g mask="url(#mask6_1148_1444)">
<path d="M256.153 19.7457C257.024 18.223 258.201 16.9326 259.162 15.4789C260.352 16.8058 261.428 18.2422 262.666 19.524C262.92 19.7869 263.384 19.7835 263.619 19.4888C264.872 17.917 266.019 16.2569 267.241 14.6598C268.316 16.1978 269.46 17.6369 270.799 18.9439C271.016 19.1549 271.37 19.2041 271.618 19.0242C272.3 18.531 272.791 17.6349 273.285 16.9512C273.898 16.0989 275.188 14.8928 275.463 13.8938C275.486 13.8613 275.511 13.8301 275.535 13.7982C275.822 14.2124 276.213 14.5941 276.507 14.9738C277.551 16.3219 278.589 17.676 279.685 18.9777C280.009 19.3614 280.512 19.1277 280.737 18.7839C281.795 17.1649 282.886 15.5758 283.997 14.002C285.179 15.8686 286.464 17.6402 287.872 19.3249C288.453 20.0192 289.358 18.9439 288.782 18.2555C287.232 16.4009 285.855 14.4534 284.591 12.3685C284.371 12.006 283.8 11.8939 283.53 12.2715C282.355 13.9177 281.216 15.5918 280.096 17.2837C278.778 15.5732 277.574 13.5221 276.009 12.1514C275.788 11.9589 275.44 11.8766 275.191 12.0731C274.095 12.942 273.281 14.5928 272.462 15.7351C272.271 16.002 271.329 17.6867 270.991 17.7046C271.494 17.6774 269.901 15.9535 269.871 15.915C269.136 15.0276 268.48 14.0657 267.834 13.1039C267.592 12.7435 267.071 12.624 266.774 12.9977C265.503 14.6007 264.338 16.2927 263.087 17.9137C261.87 16.5715 260.78 15.1105 259.527 13.8069C259.202 13.4683 258.698 13.6004 258.476 13.9894C257.453 15.7876 255.998 17.2559 254.969 19.0534C254.513 19.8499 255.7 20.5376 256.153 19.7457Z" fill="#FF8686"/>
<path d="M286.435 35.8485C286.213 35.4861 285.636 35.3746 285.364 35.7522C284.176 37.3998 283.026 39.0751 281.895 40.7678C280.564 39.0585 279.349 37.0081 277.769 35.6387C277.546 35.4462 277.193 35.3639 276.943 35.5611C275.836 36.4313 275.014 38.0828 274.187 39.2258C273.994 39.4926 273.044 41.178 272.702 41.1966C273.21 41.1694 271.602 39.4462 271.57 39.4077C270.827 38.5202 270.166 37.5597 269.513 36.5979C269.269 36.2375 268.743 36.1187 268.444 36.493C267.161 38.0967 265.984 39.79 264.719 41.4116C263.492 40.0708 262.391 38.6105 261.126 37.3075C260.797 36.9696 260.288 37.1017 260.064 37.4914C259.032 39.2902 257.562 40.7598 256.523 42.5573C256.063 43.3545 257.261 44.0422 257.719 43.249C258.598 41.7256 259.786 40.4346 260.758 38.9802C261.959 40.3058 263.045 41.7415 264.296 43.022C264.553 43.2848 265.02 43.2815 265.258 42.9868C266.523 41.4136 267.681 39.7528 268.915 38.1551C270.001 39.6924 271.155 41.1302 272.508 42.4358C272.726 42.6469 273.084 42.6954 273.335 42.5155C274.023 42.0216 274.519 41.1255 275.017 40.4405C275.637 39.5882 276.939 38.3815 277.217 37.3818C277.241 37.3493 277.266 37.3181 277.29 37.2856C277.579 37.6998 277.975 38.0815 278.271 38.4605C279.325 39.8086 280.374 41.1614 281.481 42.4617C281.807 42.8461 282.316 42.6111 282.542 42.2672C283.611 40.6476 284.712 39.0579 285.834 37.4821C287.028 39.3479 288.326 41.1182 289.748 42.8023C290.334 43.4959 291.248 42.4193 290.667 41.7316C289.101 39.879 287.711 37.9328 286.435 35.8485Z" fill="#FF8686"/>
<path d="M284.259 20.2659C283.08 21.9128 281.937 23.5868 280.814 25.2794C279.49 23.5695 278.283 21.5185 276.712 20.1484C276.491 19.9559 276.141 19.8736 275.892 20.0701C274.793 20.9396 273.975 22.5905 273.154 23.7342C272.962 24.0003 272.018 25.685 271.678 25.7036C272.183 25.6764 270.585 23.9525 270.554 23.914C269.816 23.0266 269.159 22.0654 268.511 21.1036C268.267 20.7432 267.745 20.6237 267.447 20.9981C266.172 22.6011 265.003 24.2937 263.747 25.9147C262.527 24.5732 261.434 23.1122 260.176 21.8092C259.849 21.4707 259.344 21.6028 259.122 21.9924C258.095 23.7906 256.634 25.2595 255.603 27.057C255.146 27.8536 256.336 28.5413 256.79 27.7494C257.664 26.226 258.845 24.9356 259.81 23.4813C261.004 24.8075 262.083 26.2439 263.326 27.525C263.581 27.7879 264.046 27.7845 264.281 27.4898C265.539 25.918 266.69 24.2572 267.915 22.6602C268.995 24.1975 270.141 25.6359 271.486 26.9429C271.702 27.154 272.058 27.2024 272.307 27.0225C272.992 26.5293 273.484 25.6332 273.979 24.9489C274.595 24.0966 275.888 22.8905 276.164 21.8908C276.188 21.8583 276.213 21.8271 276.237 21.7946C276.525 22.2088 276.918 22.5911 277.213 22.9702C278.26 24.3183 279.301 25.6724 280.401 26.9734C280.726 27.3577 281.231 27.1234 281.457 26.7796C282.518 25.1606 283.612 23.5709 284.727 21.9957C285.913 23.8623 287.203 25.6332 288.616 27.3179C289.198 28.0116 290.106 26.9356 289.529 26.2479C287.973 24.394 286.592 22.4471 285.323 20.3628C285.102 19.9997 284.529 19.8882 284.259 20.2659Z" fill="#FF8686"/>
<path d="M284.579 28.2793C283.396 29.9261 282.249 31.6008 281.121 33.2935C279.795 31.5836 278.583 29.5325 277.007 28.1631C276.786 27.9706 276.435 27.8883 276.184 28.0848C275.081 28.9543 274.261 30.6058 273.437 31.7488C273.244 32.0157 272.297 33.7004 271.956 33.7189C272.462 33.6917 270.86 31.9679 270.828 31.9301C270.088 31.0419 269.428 30.0814 268.778 29.1196C268.534 28.7585 268.01 28.639 267.711 29.0134C266.432 30.6171 265.259 32.3097 263.999 33.9314C262.776 32.5899 261.678 31.1289 260.416 29.8259C260.088 29.4873 259.581 29.6194 259.357 30.0091C258.328 31.8073 256.863 33.2762 255.827 35.0744C255.368 35.8709 256.563 36.5586 257.019 35.766C257.896 34.2427 259.08 32.9529 260.048 31.4979C261.246 32.8242 262.329 34.2606 263.576 35.541C263.831 35.8039 264.298 35.8012 264.535 35.5065C265.797 33.934 266.951 32.2732 268.181 30.6755C269.264 32.2135 270.414 33.6519 271.762 34.9576C271.981 35.1693 272.337 35.2178 272.588 35.0379C273.274 34.544 273.768 33.6479 274.264 32.9636C274.882 32.1113 276.18 30.9052 276.457 29.9055C276.481 29.873 276.507 29.8418 276.53 29.8093C276.819 30.2235 277.213 30.6058 277.509 30.9848C278.559 32.333 279.604 33.6864 280.707 34.9874C281.034 35.3718 281.54 35.1374 281.766 34.7929C282.832 33.174 283.929 31.5842 285.049 30.0091C286.239 31.8756 287.532 33.6459 288.95 35.3306C289.534 36.0242 290.445 34.9483 289.866 34.2606C288.305 32.4066 286.919 30.4604 285.647 28.3762C285.426 28.0131 284.851 27.9016 284.579 28.2793Z" fill="#FF8686"/>
</g>
<path d="M315.296 43.9399C312.317 38.5606 309.358 33.1747 306.416 27.7828C303.474 22.3909 300.55 16.9924 297.644 11.5879C302.949 11.3045 308.252 11.0005 313.556 10.6759C318.858 10.3513 324.16 10.0061 329.461 9.64038C327.137 15.3648 324.795 21.0853 322.434 26.8024C320.073 32.5182 317.694 38.2314 315.296 43.9399Z" fill="#199A00"/>
<mask id="mask7_1148_1444" style="mask-type:luminance" maskUnits="userSpaceOnUse" x="297" y="9" width="33" height="35">
<path d="M313.555 10.6757C308.252 11.0003 302.949 11.3043 297.645 11.5884C300.55 16.9923 303.474 22.3908 306.416 27.7827C309.357 33.1745 312.317 38.5605 315.296 43.9397C317.694 38.2312 320.074 32.5187 322.434 26.8023C324.795 21.0858 327.137 15.3647 329.461 9.6409C324.16 10.006 318.858 10.3518 313.555 10.6757Z" fill="white"/>
</mask>
<g mask="url(#mask7_1148_1444)">
<path d="M300.774 14.5307C300.02 14.6376 297.719 19.6106 298.128 20.0839C298.535 20.5585 303.019 23.5143 303.623 23.0981C304.226 22.6833 306.762 18.4304 306.49 17.6624C306.217 16.8971 301.76 14.3933 300.774 14.5307Z" fill="#157F03"/>
<path d="M312.758 6.17444C312.015 6.0138 308.358 9.92214 308.6 10.5116C308.842 11.103 312.182 15.4574 312.876 15.2729C313.57 15.0903 317.242 11.9453 317.214 11.1249C317.187 10.3051 313.729 6.38685 312.758 6.17444Z" fill="#157F03"/>
<path d="M319.831 23.4064C319.121 23.7111 318.033 29.1422 318.54 29.4913C319.048 29.8424 324.097 31.5079 324.587 30.943C325.077 30.3814 326.557 25.5856 326.115 24.9145C325.674 24.2461 320.76 23.0102 319.831 23.4064Z" fill="#157F03"/>
<path d="M304.739 31.2914C304.27 31.9432 305.94 37.1997 306.546 37.2209C307.153 37.2435 312.301 35.9033 312.451 35.1512C312.601 34.4012 311.575 29.4753 310.874 29.1407C310.175 28.8082 305.35 30.4417 304.739 31.2914Z" fill="#157F03"/>
<path d="M309.372 19.3829C308.799 19.9266 309.486 25.4293 310.074 25.5747C310.662 25.722 315.931 25.4665 316.212 24.7589C316.494 24.054 316.374 19.0079 315.75 18.5353C315.126 18.0647 310.121 18.6754 309.372 19.3829Z" fill="#157F03"/>
<path d="M315.454 36.3864C315.047 37.0841 317.193 42.1408 317.8 42.0983C318.408 42.0578 323.42 40.1879 323.501 39.4239C323.581 38.6612 322.108 33.8667 321.38 33.6072C320.652 33.349 315.987 35.4771 315.454 36.3864Z" fill="#157F03"/>
<path d="M324.889 11.1175C324.13 11.1408 321.372 15.8363 321.732 16.3521C322.092 16.8692 326.268 20.3009 326.908 19.9524C327.547 19.6066 330.474 15.6531 330.275 14.8593C330.077 14.068 325.882 11.089 324.889 11.1175Z" fill="#157F03"/>
</g>
<path d="M357.674 40.9121C354.602 35.5945 351.548 30.2697 348.512 24.9389C345.476 19.6081 342.458 14.2706 339.458 8.92586C344.758 8.53489 350.057 8.12269 355.355 7.6899C360.653 7.25645 365.949 6.80309 371.245 6.32915C369.021 12.1001 366.778 17.8676 364.516 23.6312C362.254 29.3955 359.974 35.1558 357.674 40.9121Z" fill="#FFC900"/>
<mask id="mask8_1148_1444" style="mask-type:luminance" maskUnits="userSpaceOnUse" x="339" y="6" width="33" height="35">
<path d="M355.355 7.68937C350.057 8.12282 344.759 8.53503 339.458 8.926C342.458 14.2708 345.477 19.6075 348.512 24.939C351.548 30.2698 354.602 35.594 357.674 40.9122C359.974 35.1559 362.254 29.3956 364.516 23.6314C366.778 17.8678 369.021 12.1002 371.246 6.3293C365.95 6.8039 360.653 7.25725 355.355 7.68937Z" fill="white"/>
</mask>
<g mask="url(#mask8_1148_1444)">
<path d="M342.113 7.19087C342.738 12.2701 342.879 17.4031 343.637 22.4651C343.773 23.3785 345.125 23.2842 344.986 22.3629C344.224 17.3016 344.081 12.1686 343.454 7.08931C343.34 6.16998 341.999 6.26423 342.113 7.19087Z" fill="#FF9F00"/>
<path d="M346.482 4.81997C346.787 12.8305 347.09 20.841 347.391 28.8521C347.427 29.7841 348.78 29.6785 348.745 28.7472C348.439 20.7367 348.131 12.7262 347.821 4.71575C347.784 3.78381 346.446 3.88868 346.482 4.81997Z" fill="#FF9F00"/>
<path d="M351.022 5.57543C351.705 17.9463 352.386 30.3172 353.063 42.6887C353.114 43.6193 354.475 43.5118 354.424 42.5805C353.74 30.209 353.052 17.8388 352.363 5.4679C352.31 4.53728 350.971 4.64414 351.022 5.57543Z" fill="#FF9F00"/>
<path d="M355.335 3.67779C356.48 17.9577 357.34 32.2608 357.897 46.5819C357.932 47.5145 359.297 47.4016 359.26 46.4704C358.694 32.15 357.828 17.8468 356.674 3.56761C356.599 2.64031 355.261 2.74783 355.335 3.67779Z" fill="#FF9F00"/>
<path d="M359.513 3.36011C360.238 15.1555 361.183 26.9323 362.359 38.6851C362.451 39.6105 363.811 39.4996 363.717 38.5703C362.535 26.8181 361.583 15.0426 360.852 3.24727C360.794 2.31731 359.456 2.42883 359.513 3.36011Z" fill="#FF9F00"/>
<path d="M363.436 3.53775C364.337 11.7009 365.241 19.8647 366.149 28.0272C366.251 28.9506 367.605 28.8384 367.501 27.9104C366.59 19.7479 365.681 11.5854 364.776 3.42225C364.673 2.4996 363.335 2.60979 363.436 3.53775Z" fill="#FF9F00"/>
<path d="M367.982 2.63743C367.999 7.57528 368.386 12.4627 369.152 17.3309C369.296 18.2429 370.645 18.132 370.499 17.212C369.73 12.3439 369.341 7.45713 369.321 2.51927C369.317 1.58666 367.979 1.70946 367.982 2.63743Z" fill="#FF9F00"/>
</g>
<path d="M432 1.49883C269.826 20.8646 106.174 20.8646 -56 1.49883C-55.9491 0.99967 -55.8981 0.499843 -55.8472 1.65529e-05C106.226 19.3538 269.774 19.3538 431.847 1.65529e-05C431.898 0.499843 431.949 0.99967 432 1.49883Z" fill="#361E04"/>
</svg>
